<?xml version="1.0" standalone="no"?>
<!DOCTYPE svg PUBLIC "-//W3C//DTD SVG 1.1//EN" "http://www.w3.org/Graphics/SVG/1.1/DTD/svg11.dtd"><svg xmlns="http://www.w3.org/2000/svg" style="background-color:#FFF" width="276" height="425"><path stroke="black" fill="none" stroke-width="1" d="M0.83, 422L0.47, 421.34L0.12, 420.21L0, 419L0, 6L0.12, 4.79L0.47, 3.66L1.02, 2.65L1.76, 1.76L2.65, 1.02L3.66, 0.47L4.79, 0.12L6, 0M6, 0L274, 0"/><path stroke="black" fill="none" stroke-width="1" d="M0.83, 422L0.47, 421.34L0.12, 420.21L0, 419L0, 6L0.12, 4.79L0.47, 3.66L1.02, 2.65L1.76, 1.76L2.65, 1.02L3.66, 0.47L4.79, 0.12L6, 0M6, 0L274, 0"/><path stroke="black" fill="none" stroke-width="1" d="M194.75, 381.5L198.5, 381.5L198.5, 385.25"/><path stroke="black" fill="none" stroke-width="1" d="M193.25, 386.75L198.5, 381.5"/><path stroke="black" fill="none" stroke-width="1" d="M187.25, 396.5L183.5, 396.5L183.5, 392.75"/><path stroke="black" fill="none" stroke-width="1" d="M188.75, 391.25L183.5, 396.5"/><path stroke="black" fill="none" stroke-width="1" d="M198.5, 392.75L198.5, 396.5L194.75, 396.5"/><path stroke="black" fill="none" stroke-width="1" d="M193.25, 391.25L198.5, 396.5"/><path stroke="black" fill="none" stroke-width="1" d="M183.5, 385.25L183.5, 381.5L187.25, 381.5"/><path stroke="black" fill="none" stroke-width="1" d="M188.75, 386.75L183.5, 381.5"/><path stroke="black" fill="none" stroke-width="1" d="M216.53, 383.36L216.53, 395L214.77, 395L214.77, 385.13L214.71, 385.13L211.92, 386.94L211.92, 385.26L214.82, 383.36L216.53, 383.36"/><path stroke="black" fill="none" stroke-width="1" d="M219.68, 395L219.68, 393.73L223.62, 389.65L224.66, 388.48L225.28, 387.52L225.48, 386.56L225.21, 385.56L224.47, 384.9L223.4, 384.67L222.31, 384.93L221.6, 385.65L221.35, 386.74L219.67, 386.74L219.79, 385.74L220.16, 384.88L220.74, 384.17L221.5, 383.65L222.41, 383.32L223.44, 383.2L224.47, 383.31L225.37, 383.64L226.12, 384.15L226.68, 384.82L227.04, 385.62L227.15, 386.51L226.91, 387.77L226.07, 389.15L225.36, 389.99L224.41, 390.99L222.1, 393.41L222.1, 393.49L227.34, 393.49L227.34, 395L219.68, 395"/><path stroke="black" fill="none" stroke-width="1" d="M233.54, 395.19L232.3, 395.01L231.24, 394.48L230.4, 393.62L229.78, 392.43L229.4, 390.95L229.28, 389.19L229.4, 387.43L229.78, 385.95L230.41, 384.77L231.25, 383.91L232.3, 383.38L233.54, 383.2L234.79, 383.38L235.84, 383.92L236.68, 384.78L237.29, 385.96L237.68, 387.43L237.81, 389.19L237.68, 390.95L237.3, 392.44L236.68, 393.62L235.84, 394.49L234.79, 395.02L233.54, 395.19"/><path stroke="black" fill="none" stroke-width="1" d="M233.54, 393.68L234.6, 393.39L235.39, 392.52L235.89, 391.11L236.06, 389.19L235.99, 387.85L235.76, 386.74L235.39, 385.86L234.89, 385.22L234.27, 384.82L233.54, 384.69L232.5, 384.98L231.7, 385.85L231.19, 387.27L231.02, 389.19L231.1, 390.53L231.32, 391.65L231.69, 392.53L232.19, 393.17L232.82, 393.55L233.54, 393.68"/><path stroke="black" fill="none" stroke-width="1" d="M243.87, 395.19L242.63, 395.01L241.57, 394.48L240.73, 393.62L240.11, 392.43L239.73, 390.95L239.61, 389.19L239.73, 387.43L240.11, 385.95L240.73, 384.77L241.58, 383.91L242.63, 383.38L243.87, 383.2L245.11, 383.38L246.16, 383.92L247.01, 384.78L247.62, 385.96L248.01, 387.43L248.13, 389.19L248.01, 390.95L247.63, 392.44L247.01, 393.62L246.17, 394.49L245.12, 395.02L243.87, 395.19"/><path stroke="black" fill="none" stroke-width="1" d="M243.87, 393.68L244.93, 393.39L245.72, 392.52L246.22, 391.11L246.39, 389.19L246.31, 387.85L246.08, 386.74L245.72, 385.86L245.21, 385.22L244.6, 384.82L243.87, 384.69L242.82, 384.98L242.03, 385.85L241.52, 387.27L241.35, 389.19L241.43, 390.53L241.65, 391.65L242.02, 392.53L242.52, 393.17L243.15, 393.55L243.87, 393.68"/><path stroke="black" fill="none" stroke-width="1" d="M254.2, 395.19L252.95, 395.01L251.9, 394.48L251.06, 393.62L250.44, 392.43L250.06, 390.95L249.93, 389.19L250.06, 387.43L250.44, 385.95L251.06, 384.77L251.91, 383.91L252.96, 383.38L254.2, 383.2L255.44, 383.38L256.49, 383.92L257.33, 384.78L257.95, 385.96L258.34, 387.43L258.46, 389.19L258.34, 390.95L257.96, 392.44L257.34, 393.62L256.5, 394.49L255.45, 395.02L254.2, 395.19"/><path stroke="black" fill="none" stroke-width="1" d="M254.2, 393.68L255.25, 393.39L256.05, 392.52L256.55, 391.11L256.72, 389.19L256.64, 387.85L256.41, 386.74L256.04, 385.86L255.54, 385.22L254.92, 384.82L254.2, 384.69L253.15, 384.98L252.35, 385.85L251.85, 387.27L251.68, 389.19L251.75, 390.53L251.98, 391.65L252.35, 392.53L252.85, 393.17L253.48, 393.55L254.2, 393.68"/><path stroke="black" fill="none" stroke-width="1" d="M36, 389.75L36.82, 389.64L37.54, 389.33L38.14, 388.85L38.6, 388.25L38.89, 387.55L39, 386.8L38.91, 386.02L38.6, 385.25L38.12, 384.62L37.5, 384.15L36.78, 383.85L36, 383.75L35.18, 383.86L34.46, 384.17L33.86, 384.65L33.4, 385.25L33.11, 385.95L33, 386.7L33.09, 387.48L33.4, 388.25L33.88, 388.88L34.5, 389.35L35.22, 389.65L36, 389.75"/><path stroke="black" fill="none" stroke-width="1" d="M43.5, 386.75L43.18, 389.2L42.33, 391.47L41.13, 393.51L39.75, 395.28L38.37, 396.73L37.17, 397.82L36.32, 398.51L36.08, 398.69L36, 398.75L35.92, 398.69L35.68, 398.51L34.83, 397.82L33.63, 396.73L32.25, 395.28L30.87, 393.51L29.67, 391.47L28.82, 389.2L28.5, 386.75L28.78, 384.7L29.55, 382.89L30.74, 381.4L32.25, 380.25L33.99, 379.52L35.88, 379.24L37.83, 379.47L39.75, 380.25L41.3, 381.45L42.24, 382.59L42.93, 383.88L43.35, 385.28L43.5, 386.75"/><path stroke="black" fill="none" stroke-width="1" d="M59.56, 395L56.33, 383.36L58.18, 383.36L60.44, 392.38L60.55, 392.38L62.91, 383.36L64.74, 383.36L67.1, 392.38L67.21, 392.38L69.46, 383.36L71.32, 383.36L68.08, 395L66.32, 395L63.87, 386.28L63.78, 386.28L61.33, 395L59.56, 395"/><path stroke="black" fill="none" stroke-width="1" d="M74.46, 395.19L72.96, 394.89L72.37, 394.51L71.9, 393.98L71.61, 393.33L71.51, 392.53L71.8, 391.32L72.57, 390.56L73.64, 390.14L74.86, 389.93L76.13, 389.78L76.84, 389.58L77.07, 389.14L77.07, 389.1L76.96, 388.44L76.64, 387.94L76.13, 387.64L75.41, 387.53L74.64, 387.63L74.05, 387.92L73.38, 388.75L71.78, 388.39L72.13, 387.67L72.61, 387.1L73.88, 386.39L75.38, 386.16L76.49, 386.28L77.59, 386.73L78.44, 387.65L78.69, 388.34L78.77, 389.2L78.77, 395L77.11, 395L77.11, 393.81L77.04, 393.81L76.55, 394.45L75.7, 394.98L74.46, 395.19"/><path stroke="black" fill="none" stroke-width="1" d="M74.83, 393.83L76.04, 393.55L76.8, 392.82L77.07, 391.85L77.07, 390.73L76.72, 390.9L76.13, 391.03L75.49, 391.13L74.97, 391.19L74.07, 391.4L73.42, 391.83L73.18, 392.56L73.3, 393.11L73.64, 393.51L74.17, 393.75L74.83, 393.83"/><path stroke="black" fill="none" stroke-width="1" d="M87.57, 388.4L86.03, 388.68L85.73, 388.11L85.17, 387.68L84.29, 387.51L83.63, 387.59L83.08, 387.83L82.72, 388.19L82.6, 388.65L82.93, 389.36L83.35, 389.6L83.97, 389.8L85.36, 390.11L86.41, 390.47L87.15, 390.97L87.59, 391.64L87.74, 392.48L87.63, 393.22L87.29, 393.88L86.75, 394.42L86.03, 394.83L85.17, 395.09L84.18, 395.18L82.84, 395.02L81.78, 394.55L81.04, 393.79L80.65, 392.76L82.29, 392.51L82.52, 393.07L82.92, 393.48L83.47, 393.73L84.16, 393.81L84.91, 393.72L85.5, 393.46L85.87, 393.07L86, 392.6L85.69, 391.92L84.77, 391.49L83.29, 391.17L82.23, 390.81L81.48, 390.28L81.05, 389.6L80.9, 388.74L81.01, 388.03L81.33, 387.39L81.85, 386.88L82.53, 386.49L84.27, 386.16L85.54, 386.31L86.5, 386.77L87.17, 387.48L87.57, 388.4"/><path stroke="black" fill="none" stroke-width="1" d="M91.31, 389.82L91.31, 395L89.61, 395L89.61, 383.36L91.29, 383.36L91.29, 387.69L91.39, 387.69L91.78, 387.06L92.33, 386.57L93.06, 386.26L93.98, 386.16L94.82, 386.25L95.55, 386.53L96.15, 386.99L96.59, 387.63L96.88, 388.45L96.97, 389.45L96.97, 395L95.27, 395L95.27, 389.65L95.15, 388.8L94.78, 388.17L94.18, 387.76L93.4, 387.63L92.32, 387.89L91.58, 388.64L91.31, 389.82"/><path stroke="black" fill="none" stroke-width="1" d="M99.24, 395L99.24, 386.27L100.93, 386.27L100.93, 395L99.24, 395"/><path stroke="black" fill="none" stroke-width="1" d="M100.09, 384.93L99.33, 384.63L99.02, 383.92L99.33, 383.2L100.09, 382.9L100.85, 383.2L101.17, 383.92L100.85, 384.63L100.09, 384.93"/><path stroke="black" fill="none" stroke-width="1" d="M104.92, 389.82L104.92, 395L103.22, 395L103.22, 386.27L104.85, 386.27L104.85, 387.69L104.96, 387.69L105.35, 387.07L105.9, 386.58L106.63, 386.26L107.53, 386.16L108.37, 386.25L109.1, 386.53L109.69, 386.99L110.14, 387.64L110.41, 388.46L110.5, 389.45L110.5, 395L108.81, 395L108.81, 389.65L108.68, 388.81L108.31, 388.17L107.72, 387.77L106.95, 387.63L105.9, 387.89L105.18, 388.64L104.92, 389.82"/><path stroke="black" fill="none" stroke-width="1" d="M116.44, 398.45L114.65, 398.18L113.44, 397.46L112.73, 396.48L114.19, 395.88L114.6, 396.4L115.31, 396.89L116.46, 397.08L117.34, 396.97L118.06, 396.61L118.53, 396.01L118.69, 395.13L118.69, 393.41L118.58, 393.41L118.14, 394.03L117.35, 394.62L116.05, 394.87L115.07, 394.75L114.19, 394.39L113.45, 393.78L112.88, 392.95L112.52, 391.88L112.4, 390.6L112.52, 389.31L112.87, 388.22L113.44, 387.34L114.18, 386.69L115.08, 386.29L116.06, 386.16L116.8, 386.23L117.37, 386.43L118.15, 387.06L118.59, 387.69L118.71, 387.69L118.71, 386.27L120.38, 386.27L120.38, 395.19L120.25, 396.22L119.86, 397.04L119.23, 397.68L118.44, 398.11L117.5, 398.37L116.44, 398.45"/><path stroke="black" fill="none" stroke-width="1" d="M116.43, 393.46L117.1, 393.37L117.66, 393.12L118.44, 392.13L118.7, 390.58L118.44, 389.03L117.68, 387.98L117.11, 387.7L116.43, 387.6L115.72, 387.7L115.15, 388L114.37, 389.07L114.12, 390.58L114.38, 392.08L115.15, 393.1L115.73, 393.37L116.43, 393.46"/><path stroke="black" fill="none" stroke-width="1" d="M126.73, 386.27L126.73, 387.64L121.96, 387.64L121.96, 386.27L126.73, 386.27"/><path stroke="black" fill="none" stroke-width="1" d="M123.24, 384.18L124.94, 384.18L124.94, 392.44L125.09, 393.18L125.47, 393.52L125.99, 393.6L126.35, 393.57L126.58, 393.53L126.89, 394.93L126.47, 395.05L125.79, 395.11L124.54, 394.88L123.6, 394.1L123.33, 393.51L123.24, 392.79L123.24, 384.18"/><path stroke="black" fill="none" stroke-width="1" d="M132.19, 395.18L131.04, 395.04L130.05, 394.61L129.23, 393.93L128.63, 393.04L128.25, 391.94L128.13, 390.68L128.25, 389.4L128.63, 388.3L129.23, 387.41L130.05, 386.72L131.04, 386.3L132.19, 386.16L133.34, 386.3L134.34, 386.72L135.15, 387.4L135.76, 388.3L136.13, 389.4L136.26, 390.68L136.13, 391.94L135.76, 393.04L135.16, 393.93L134.34, 394.61L133.34, 395.04L132.19, 395.18"/><path stroke="black" fill="none" stroke-width="1" d="M132.2, 393.75L132.93, 393.64L133.52, 393.33L134.29, 392.21L134.54, 390.67L134.29, 389.14L133.98, 388.52L133.52, 388.01L132.93, 387.69L132.2, 387.58L131.47, 387.69L130.87, 388.01L130.4, 388.52L130.09, 389.14L129.84, 390.67L130.09, 392.21L130.87, 393.33L131.47, 393.64L132.2, 393.75"/><path stroke="black" fill="none" stroke-width="1" d="M139.86, 389.82L139.86, 395L138.16, 395L138.16, 386.27L139.79, 386.27L139.79, 387.69L139.9, 387.69L140.28, 387.07L140.84, 386.58L141.57, 386.26L142.47, 386.16L143.31, 386.25L144.03, 386.53L144.63, 386.99L145.07, 387.64L145.35, 388.46L145.44, 389.45L145.44, 395L143.74, 395L143.74, 389.65L143.62, 388.81L143.25, 388.17L142.66, 387.77L141.89, 387.63L140.84, 387.89L140.12, 388.64L139.86, 389.82"/></svg>