<svg width="175" height="58" viewBox="0 0 175 58" fill="none" xmlns="http://www.w3.org/2000/svg">
<rect x="94" width="81" height="48" rx="4" fill="white"/>
<path d="M125.734 21.4205C125.674 20.8826 125.424 20.4659 124.984 20.1705C124.545 19.8712 123.992 19.7216 123.325 19.7216C122.848 19.7216 122.435 19.7973 122.087 19.9489C121.738 20.0966 121.467 20.3011 121.274 20.5625C121.085 20.8201 120.99 21.1136 120.99 21.4432C120.99 21.7197 121.054 21.9583 121.183 22.1591C121.316 22.3598 121.488 22.5284 121.7 22.6648C121.916 22.7973 122.147 22.9091 122.393 23C122.64 23.0871 122.876 23.1591 123.104 23.2159L124.24 23.5114C124.611 23.6023 124.992 23.7254 125.382 23.8807C125.772 24.036 126.134 24.2405 126.467 24.4943C126.801 24.7481 127.07 25.0625 127.274 25.4375C127.482 25.8125 127.587 26.2614 127.587 26.7841C127.587 27.4432 127.416 28.0284 127.075 28.5398C126.738 29.0511 126.248 29.4545 125.604 29.75C124.964 30.0455 124.189 30.1932 123.28 30.1932C122.409 30.1932 121.655 30.0549 121.018 29.7784C120.382 29.5019 119.884 29.1098 119.524 28.6023C119.164 28.0909 118.965 27.4848 118.928 26.7841H120.689C120.723 27.2045 120.859 27.5549 121.098 27.8352C121.34 28.1117 121.649 28.3182 122.024 28.4545C122.403 28.5871 122.818 28.6534 123.268 28.6534C123.765 28.6534 124.206 28.5758 124.592 28.4205C124.982 28.2614 125.289 28.0417 125.513 27.7614C125.736 27.4773 125.848 27.1458 125.848 26.767C125.848 26.4223 125.75 26.1402 125.553 25.9205C125.359 25.7008 125.096 25.5189 124.763 25.375C124.433 25.2311 124.06 25.1042 123.643 24.9943L122.268 24.6193C121.337 24.3655 120.598 23.9924 120.053 23.5C119.511 23.0076 119.24 22.3561 119.24 21.5455C119.24 20.875 119.422 20.2898 119.786 19.7898C120.149 19.2898 120.642 18.9015 121.263 18.625C121.884 18.3447 122.585 18.2045 123.365 18.2045C124.153 18.2045 124.848 18.3428 125.45 18.6193C126.056 18.8958 126.534 19.2765 126.882 19.7614C127.231 20.2424 127.412 20.7955 127.428 21.4205H125.734ZM132.088 30.1932C131.535 30.1932 131.035 30.0909 130.588 29.8864C130.141 29.678 129.787 29.3769 129.526 28.983C129.268 28.589 129.139 28.1061 129.139 27.5341C129.139 27.0417 129.234 26.6364 129.423 26.3182C129.613 26 129.868 25.7481 130.19 25.5625C130.512 25.3769 130.872 25.2367 131.27 25.142C131.668 25.0473 132.073 24.9754 132.486 24.9261C133.009 24.8655 133.433 24.8163 133.759 24.7784C134.084 24.7367 134.321 24.6705 134.469 24.5795C134.616 24.4886 134.69 24.3409 134.69 24.1364V24.0966C134.69 23.6004 134.55 23.2159 134.27 22.9432C133.993 22.6705 133.58 22.5341 133.031 22.5341C132.459 22.5341 132.009 22.661 131.679 22.9148C131.353 23.1648 131.128 23.4432 131.003 23.75L129.406 23.3864C129.596 22.8561 129.872 22.428 130.236 22.1023C130.603 21.7727 131.026 21.5341 131.503 21.3864C131.98 21.2348 132.482 21.1591 133.009 21.1591C133.357 21.1591 133.726 21.2008 134.116 21.2841C134.51 21.3636 134.878 21.5114 135.219 21.7273C135.563 21.9432 135.846 22.2519 136.065 22.6534C136.285 23.0511 136.395 23.5682 136.395 24.2045V30H134.736V28.8068H134.668C134.558 29.0265 134.393 29.2424 134.173 29.4545C133.954 29.6667 133.671 29.8428 133.327 29.983C132.982 30.1231 132.569 30.1932 132.088 30.1932ZM132.457 28.8295C132.927 28.8295 133.329 28.7367 133.662 28.5511C133.999 28.3655 134.255 28.1231 134.429 27.8239C134.607 27.5208 134.696 27.197 134.696 26.8523V25.7273C134.635 25.7879 134.518 25.8447 134.344 25.8977C134.173 25.947 133.978 25.9905 133.759 26.0284C133.539 26.0625 133.325 26.0947 133.116 26.125C132.908 26.1515 132.734 26.1742 132.594 26.1932C132.264 26.2348 131.963 26.3049 131.69 26.4034C131.421 26.5019 131.205 26.6439 131.043 26.8295C130.884 27.0114 130.804 27.2538 130.804 27.5568C130.804 27.9773 130.959 28.2955 131.27 28.5114C131.58 28.7235 131.976 28.8295 132.457 28.8295ZM140.357 18.3636V30H138.658V18.3636H140.357ZM146.403 30.1761C145.544 30.1761 144.803 29.9924 144.182 29.625C143.564 29.2538 143.087 28.733 142.75 28.0625C142.417 27.3883 142.25 26.5985 142.25 25.6932C142.25 24.7992 142.417 24.0114 142.75 23.3295C143.087 22.6477 143.557 22.1155 144.159 21.733C144.765 21.3504 145.473 21.1591 146.284 21.1591C146.777 21.1591 147.254 21.2405 147.716 21.4034C148.178 21.5663 148.593 21.822 148.96 22.1705C149.328 22.5189 149.617 22.9716 149.83 23.5284C150.042 24.0814 150.148 24.7538 150.148 25.5455V26.1477H143.21V24.875H148.483C148.483 24.428 148.392 24.0322 148.21 23.6875C148.028 23.339 147.773 23.0644 147.443 22.8636C147.117 22.6629 146.735 22.5625 146.295 22.5625C145.818 22.5625 145.402 22.6799 145.045 22.9148C144.693 23.1458 144.42 23.4489 144.227 23.8239C144.038 24.1951 143.943 24.5985 143.943 25.0341V26.0284C143.943 26.6117 144.045 27.108 144.25 27.517C144.458 27.9261 144.748 28.2386 145.119 28.4545C145.491 28.6667 145.924 28.7727 146.42 28.7727C146.742 28.7727 147.036 28.7273 147.301 28.6364C147.566 28.5417 147.795 28.4015 147.989 28.2159C148.182 28.0303 148.33 27.8011 148.432 27.5284L150.04 27.8182C149.911 28.2917 149.68 28.7064 149.347 29.0625C149.017 29.4148 148.602 29.6894 148.102 29.8864C147.606 30.0795 147.04 30.1761 146.403 30.1761Z" fill="#6E80B4"/>
<rect width="84" height="48" rx="4" fill="#4A60A1"/>
<path d="M25.7237 30V18.3636H29.8714C30.773 18.3636 31.5211 18.5189 32.1158 18.8295C32.7143 19.1402 33.1612 19.5701 33.4567 20.1193C33.7521 20.6648 33.8999 21.2955 33.8999 22.0114C33.8999 22.7235 33.7502 23.3504 33.451 23.892C33.1555 24.4299 32.7086 24.8485 32.1101 25.1477C31.5154 25.447 30.7673 25.5966 29.8658 25.5966H26.7237V24.0852H29.7067C30.2749 24.0852 30.737 24.0038 31.093 23.8409C31.4529 23.678 31.7161 23.4413 31.8828 23.1307C32.0495 22.8201 32.1328 22.447 32.1328 22.0114C32.1328 21.572 32.0476 21.1913 31.8771 20.8693C31.7105 20.5473 31.4472 20.3011 31.0874 20.1307C30.7313 19.9564 30.2635 19.8693 29.6839 19.8693H27.4794V30H25.7237ZM31.468 24.75L34.343 30H32.343L29.5249 24.75H31.468ZM39.5518 30.1761C38.692 30.1761 37.9515 29.9924 37.3303 29.625C36.7128 29.2538 36.2356 28.733 35.8984 28.0625C35.5651 27.3883 35.3984 26.5985 35.3984 25.6932C35.3984 24.7992 35.5651 24.0114 35.8984 23.3295C36.2356 22.6477 36.7053 22.1155 37.3075 21.733C37.9136 21.3504 38.6219 21.1591 39.4325 21.1591C39.925 21.1591 40.4022 21.2405 40.8643 21.4034C41.3265 21.5663 41.7412 21.822 42.1087 22.1705C42.4761 22.5189 42.7659 22.9716 42.978 23.5284C43.1901 24.0814 43.2962 24.7538 43.2962 25.5455V26.1477H36.3587V24.875H41.6314C41.6314 24.428 41.5405 24.0322 41.3587 23.6875C41.1768 23.339 40.9212 23.0644 40.5916 22.8636C40.2659 22.6629 39.8833 22.5625 39.4439 22.5625C38.9666 22.5625 38.55 22.6799 38.1939 22.9148C37.8416 23.1458 37.5689 23.4489 37.3757 23.8239C37.1863 24.1951 37.0916 24.5985 37.0916 25.0341V26.0284C37.0916 26.6117 37.1939 27.108 37.3984 27.517C37.6068 27.9261 37.8965 28.2386 38.2678 28.4545C38.639 28.6667 39.0727 28.7727 39.5689 28.7727C39.8909 28.7727 40.1844 28.7273 40.4496 28.6364C40.7147 28.5417 40.9439 28.4015 41.1371 28.2159C41.3303 28.0303 41.478 27.8011 41.5803 27.5284L43.1882 27.8182C43.0594 28.2917 42.8284 28.7064 42.495 29.0625C42.1655 29.4148 41.7507 29.6894 41.2507 29.8864C40.7545 30.0795 40.1882 30.1761 39.5518 30.1761ZM46.88 24.8182V30H45.1811V21.2727H46.8118V22.6932H46.9197C47.1205 22.2311 47.4349 21.8598 47.8629 21.5795C48.2947 21.2992 48.8383 21.1591 49.4936 21.1591C50.0883 21.1591 50.6091 21.2841 51.0561 21.5341C51.5031 21.7803 51.8497 22.1477 52.0959 22.6364C52.3421 23.125 52.4652 23.7292 52.4652 24.4489V30H50.7663V24.6534C50.7663 24.0208 50.6016 23.5265 50.272 23.1705C49.9425 22.8106 49.4898 22.6307 48.9141 22.6307C48.5201 22.6307 48.1697 22.7159 47.8629 22.8864C47.5599 23.0568 47.3194 23.3068 47.1413 23.6364C46.9671 23.9621 46.88 24.3561 46.88 24.8182ZM58.8175 21.2727V22.6364H54.0504V21.2727H58.8175ZM55.3288 19.1818H57.0277V27.4375C57.0277 27.767 57.0769 28.0152 57.1754 28.1818C57.2739 28.3447 57.4008 28.4564 57.5561 28.517C57.7152 28.5739 57.8875 28.6023 58.0732 28.6023C58.2095 28.6023 58.3288 28.5928 58.4311 28.5739C58.5334 28.5549 58.6129 28.5398 58.6697 28.5284L58.9766 29.9318C58.8781 29.9697 58.7379 30.0076 58.5561 30.0455C58.3743 30.0871 58.147 30.1098 57.8743 30.1136C57.4273 30.1212 57.0107 30.0417 56.6243 29.875C56.2379 29.7083 55.9254 29.4508 55.6868 29.1023C55.4482 28.7538 55.3288 28.3163 55.3288 27.7898V19.1818Z" fill="white"/>
<path d="M42 58L33.3397 43L50.6603 43L42 58Z" fill="#4A60A1"/>
</svg>
