<svg width="1096" height="128" viewBox="0 0 1096 128" fill="none" xmlns="http://www.w3.org/2000/svg">
<rect width="1096" height="128" rx="8" fill="white"/>
<path d="M63.2805 50V38.3636H65.3885V48.233H70.5135V50H63.2805ZM76.0589 50.1705C75.2067 50.1705 74.468 49.983 73.843 49.608C73.218 49.233 72.7332 48.7083 72.3885 48.0341C72.0476 47.3598 71.8771 46.572 71.8771 45.6705C71.8771 44.7689 72.0476 43.9792 72.3885 43.3011C72.7332 42.6231 73.218 42.0966 73.843 41.7216C74.468 41.3466 75.2067 41.1591 76.0589 41.1591C76.9112 41.1591 77.6499 41.3466 78.2749 41.7216C78.8999 42.0966 79.3828 42.6231 79.7237 43.3011C80.0684 43.9792 80.2408 44.7689 80.2408 45.6705C80.2408 46.572 80.0684 47.3598 79.7237 48.0341C79.3828 48.7083 78.8999 49.233 78.2749 49.608C77.6499 49.983 76.9112 50.1705 76.0589 50.1705ZM76.0703 48.5227C76.5324 48.5227 76.9188 48.3958 77.2294 48.142C77.54 47.8845 77.7711 47.5398 77.9226 47.108C78.0779 46.6761 78.1555 46.1951 78.1555 45.6648C78.1555 45.1307 78.0779 44.6477 77.9226 44.2159C77.7711 43.7803 77.54 43.4337 77.2294 43.1761C76.9188 42.9186 76.5324 42.7898 76.0703 42.7898C75.5968 42.7898 75.2029 42.9186 74.8885 43.1761C74.5779 43.4337 74.3449 43.7803 74.1896 44.2159C74.0381 44.6477 73.9624 45.1307 73.9624 45.6648C73.9624 46.1951 74.0381 46.6761 74.1896 47.108C74.3449 47.5398 74.5779 47.8845 74.8885 48.142C75.2029 48.3958 75.5968 48.5227 76.0703 48.5227ZM85.7933 50.1705C84.9221 50.1705 84.174 49.9792 83.549 49.5966C82.9278 49.214 82.4486 48.6856 82.1115 48.0114C81.7782 47.3333 81.6115 46.553 81.6115 45.6705C81.6115 44.7841 81.782 44.0019 82.1229 43.3239C82.4638 42.642 82.9448 42.1117 83.5661 41.733C84.1911 41.3504 84.9297 41.1591 85.782 41.1591C86.4903 41.1591 87.1172 41.2898 87.6626 41.5511C88.2119 41.8087 88.6494 42.1742 88.9751 42.6477C89.3009 43.1174 89.4865 43.6667 89.532 44.2955H87.5661C87.4865 43.875 87.2971 43.5246 86.9979 43.2443C86.7024 42.9602 86.3066 42.8182 85.8104 42.8182C85.3899 42.8182 85.0206 42.9318 84.7024 43.1591C84.3842 43.3826 84.1361 43.7045 83.9581 44.125C83.7839 44.5455 83.6967 45.0492 83.6967 45.6364C83.6967 46.2311 83.7839 46.7424 83.9581 47.1705C84.1323 47.5947 84.3767 47.9223 84.6911 48.1534C85.0092 48.3807 85.3823 48.4943 85.8104 48.4943C86.1134 48.4943 86.3842 48.4375 86.6229 48.3239C86.8653 48.2064 87.0679 48.0379 87.2308 47.8182C87.3937 47.5985 87.5054 47.3314 87.5661 47.017H89.532C89.4827 47.6345 89.3009 48.1818 88.9865 48.6591C88.6721 49.1326 88.2441 49.5038 87.7024 49.7727C87.1607 50.0379 86.5244 50.1705 85.7933 50.1705ZM93.7322 50.1761C93.1792 50.1761 92.6811 50.0777 92.2379 49.8807C91.7985 49.6799 91.45 49.3845 91.1925 48.9943C90.9387 48.6042 90.8118 48.1231 90.8118 47.5511C90.8118 47.0587 90.9027 46.6515 91.0845 46.3295C91.2663 46.0076 91.5144 45.75 91.8288 45.5568C92.1432 45.3636 92.4974 45.2178 92.8913 45.1193C93.2891 45.017 93.7 44.9432 94.1243 44.8977C94.6357 44.8447 95.0504 44.7973 95.3686 44.7557C95.6868 44.7102 95.9179 44.642 96.0618 44.5511C96.2095 44.4564 96.2834 44.3106 96.2834 44.1136V44.0795C96.2834 43.6515 96.1565 43.3201 95.9027 43.0852C95.6489 42.8504 95.2834 42.733 94.8061 42.733C94.3023 42.733 93.9027 42.8428 93.6072 43.0625C93.3156 43.2822 93.1186 43.5417 93.0163 43.8409L91.0959 43.5682C91.2474 43.0379 91.4974 42.5947 91.8459 42.2386C92.1944 41.8788 92.6205 41.6098 93.1243 41.4318C93.6281 41.25 94.1849 41.1591 94.7947 41.1591C95.2152 41.1591 95.6338 41.2083 96.0504 41.3068C96.4671 41.4053 96.8478 41.5682 97.1925 41.7955C97.5372 42.0189 97.8137 42.3239 98.022 42.7102C98.2341 43.0966 98.3402 43.5795 98.3402 44.1591V50H96.3629V48.8011H96.2947C96.1697 49.0436 95.9936 49.2708 95.7663 49.483C95.5429 49.6913 95.2607 49.8598 94.9197 49.9886C94.5826 50.1136 94.1868 50.1761 93.7322 50.1761ZM94.2663 48.6648C94.6792 48.6648 95.0372 48.5833 95.3402 48.4205C95.6432 48.2538 95.8762 48.0341 96.0391 47.7614C96.2057 47.4886 96.2891 47.1913 96.2891 46.8693V45.8409C96.2247 45.8939 96.1148 45.9432 95.9595 45.9886C95.808 46.0341 95.6375 46.0739 95.4482 46.108C95.2588 46.142 95.0713 46.1723 94.8857 46.1989C94.7 46.2254 94.5391 46.2481 94.4027 46.267C94.0959 46.3087 93.8213 46.3769 93.5788 46.4716C93.3364 46.5663 93.1451 46.6989 93.005 46.8693C92.8648 47.036 92.7947 47.2519 92.7947 47.517C92.7947 47.8958 92.933 48.1818 93.2095 48.375C93.486 48.5682 93.8383 48.6648 94.2663 48.6648ZM104.766 41.2727V42.8636H99.7493V41.2727H104.766ZM100.988 39.1818H103.045V47.375C103.045 47.6515 103.086 47.8636 103.17 48.0114C103.257 48.1553 103.371 48.2538 103.511 48.3068C103.651 48.3598 103.806 48.3864 103.977 48.3864C104.105 48.3864 104.223 48.3769 104.329 48.358C104.439 48.339 104.522 48.322 104.579 48.3068L104.925 49.9148C104.816 49.9527 104.658 49.9943 104.454 50.0398C104.253 50.0852 104.007 50.1117 103.715 50.1193C103.2 50.1345 102.736 50.0568 102.323 49.8864C101.91 49.7121 101.583 49.4432 101.34 49.0795C101.102 48.7159 100.984 48.2614 100.988 47.7159V39.1818ZM106.487 50V41.2727H108.543V50H106.487ZM107.521 40.0341C107.195 40.0341 106.915 39.9261 106.68 39.7102C106.445 39.4905 106.327 39.2273 106.327 38.9205C106.327 38.6098 106.445 38.3466 106.68 38.1307C106.915 37.911 107.195 37.8011 107.521 37.8011C107.85 37.8011 108.13 37.911 108.362 38.1307C108.596 38.3466 108.714 38.6098 108.714 38.9205C108.714 39.2273 108.596 39.4905 108.362 39.7102C108.13 39.9261 107.85 40.0341 107.521 40.0341ZM114.465 50.1705C113.613 50.1705 112.874 49.983 112.249 49.608C111.624 49.233 111.139 48.7083 110.795 48.0341C110.454 47.3598 110.283 46.572 110.283 45.6705C110.283 44.7689 110.454 43.9792 110.795 43.3011C111.139 42.6231 111.624 42.0966 112.249 41.7216C112.874 41.3466 113.613 41.1591 114.465 41.1591C115.317 41.1591 116.056 41.3466 116.681 41.7216C117.306 42.0966 117.789 42.6231 118.13 43.3011C118.475 43.9792 118.647 44.7689 118.647 45.6705C118.647 46.572 118.475 47.3598 118.13 48.0341C117.789 48.7083 117.306 49.233 116.681 49.608C116.056 49.983 115.317 50.1705 114.465 50.1705ZM114.477 48.5227C114.939 48.5227 115.325 48.3958 115.636 48.142C115.946 47.8845 116.177 47.5398 116.329 47.108C116.484 46.6761 116.562 46.1951 116.562 45.6648C116.562 45.1307 116.484 44.6477 116.329 44.2159C116.177 43.7803 115.946 43.4337 115.636 43.1761C115.325 42.9186 114.939 42.7898 114.477 42.7898C114.003 42.7898 113.609 42.9186 113.295 43.1761C112.984 43.4337 112.751 43.7803 112.596 44.2159C112.444 44.6477 112.369 45.1307 112.369 45.6648C112.369 46.1951 112.444 46.6761 112.596 47.108C112.751 47.5398 112.984 47.8845 113.295 48.142C113.609 48.3958 114.003 48.5227 114.477 48.5227ZM122.45 44.8864V50H120.393V41.2727H122.359V42.7557H122.461C122.662 42.267 122.982 41.8788 123.421 41.5909C123.864 41.303 124.412 41.1591 125.063 41.1591C125.665 41.1591 126.19 41.2879 126.637 41.5455C127.088 41.803 127.436 42.1761 127.683 42.6648C127.933 43.1534 128.056 43.7462 128.052 44.4432V50H125.995V44.7614C125.995 44.178 125.844 43.7216 125.54 43.392C125.241 43.0625 124.826 42.8977 124.296 42.8977C123.936 42.8977 123.616 42.9773 123.336 43.1364C123.059 43.2917 122.842 43.517 122.683 43.8125C122.527 44.108 122.45 44.4659 122.45 44.8864ZM137.04 43.5795L135.165 43.7841C135.112 43.5947 135.02 43.4167 134.887 43.25C134.758 43.0833 134.584 42.9489 134.364 42.8466C134.145 42.7443 133.876 42.6932 133.558 42.6932C133.129 42.6932 132.77 42.786 132.478 42.9716C132.19 43.1572 132.048 43.3977 132.052 43.6932C132.048 43.947 132.141 44.1534 132.33 44.3125C132.523 44.4716 132.842 44.6023 133.285 44.7045L134.773 45.0227C135.599 45.2008 136.213 45.483 136.614 45.8693C137.02 46.2557 137.224 46.7614 137.228 47.3864C137.224 47.9356 137.063 48.4205 136.745 48.8409C136.431 49.2576 135.993 49.5833 135.433 49.8182C134.872 50.053 134.228 50.1705 133.501 50.1705C132.433 50.1705 131.573 49.947 130.921 49.5C130.27 49.0492 129.881 48.4223 129.756 47.6193L131.762 47.4261C131.853 47.8201 132.046 48.1174 132.342 48.3182C132.637 48.5189 133.022 48.6193 133.495 48.6193C133.984 48.6193 134.376 48.5189 134.671 48.3182C134.97 48.1174 135.12 47.8693 135.12 47.5739C135.12 47.3239 135.023 47.1174 134.83 46.9545C134.641 46.7917 134.345 46.6667 133.944 46.5795L132.455 46.267C131.618 46.0928 130.999 45.7992 130.597 45.3864C130.196 44.9697 129.997 44.4432 130.001 43.8068C129.997 43.2689 130.143 42.803 130.438 42.4091C130.737 42.0114 131.152 41.7045 131.683 41.4886C132.217 41.2689 132.832 41.1591 133.529 41.1591C134.552 41.1591 135.357 41.3769 135.944 41.8125C136.535 42.2481 136.9 42.8371 137.04 43.5795Z" fill="#2C3A61"/>
<path d="M70.1634 81.2727C70.0952 80.697 69.8187 80.25 69.3338 79.9318C68.849 79.6136 68.2543 79.4545 67.5497 79.4545C67.0346 79.4545 66.5838 79.5379 66.1974 79.7045C65.8149 79.8712 65.5156 80.1004 65.2997 80.392C65.0876 80.6837 64.9815 81.0152 64.9815 81.3864C64.9815 81.697 65.0554 81.964 65.2031 82.1875C65.3546 82.4072 65.5478 82.5909 65.7827 82.7386C66.0175 82.8826 66.2637 83.0019 66.5213 83.0966C66.7789 83.1875 67.0156 83.2614 67.2315 83.3182L68.4134 83.6364C68.7164 83.7159 69.0535 83.8258 69.4247 83.9659C69.7997 84.1061 70.1577 84.2973 70.4986 84.5398C70.8433 84.7784 71.1274 85.0852 71.3509 85.4602C71.5743 85.8352 71.6861 86.2955 71.6861 86.8409C71.6861 87.4697 71.5213 88.0379 71.1918 88.5455C70.866 89.053 70.3887 89.4564 69.7599 89.7557C69.1349 90.0549 68.3755 90.2045 67.4815 90.2045C66.6482 90.2045 65.9266 90.0701 65.3168 89.8011C64.7107 89.5322 64.2334 89.1572 63.8849 88.6761C63.5402 88.1951 63.3452 87.6364 63.2997 87H64.7543C64.7921 87.4394 64.9399 87.803 65.1974 88.0909C65.4588 88.375 65.7884 88.5871 66.1861 88.7273C66.5876 88.8636 67.0194 88.9318 67.4815 88.9318C68.0194 88.9318 68.5024 88.8447 68.9304 88.6705C69.3584 88.4924 69.6974 88.2462 69.9474 87.9318C70.1974 87.6136 70.3224 87.2424 70.3224 86.8182C70.3224 86.4318 70.2145 86.1174 69.9986 85.875C69.7827 85.6326 69.4986 85.4356 69.1463 85.2841C68.794 85.1326 68.4134 85 68.0043 84.8864L66.5724 84.4773C65.6634 84.2159 64.9437 83.8428 64.4134 83.358C63.883 82.8731 63.6179 82.2386 63.6179 81.4545C63.6179 80.803 63.794 80.2348 64.1463 79.75C64.5024 79.2614 64.9796 78.8826 65.5781 78.6136C66.1804 78.3409 66.8527 78.2045 67.5952 78.2045C68.3452 78.2045 69.0118 78.339 69.5952 78.608C70.1785 78.8731 70.6406 79.2367 70.9815 79.6989C71.3262 80.161 71.508 80.6856 71.527 81.2727H70.1634ZM77.4801 90.1818C76.6392 90.1818 75.9138 89.9962 75.304 89.625C74.6979 89.25 74.2301 88.7273 73.9006 88.0568C73.5748 87.3826 73.4119 86.5985 73.4119 85.7045C73.4119 84.8106 73.5748 84.0227 73.9006 83.3409C74.2301 82.6553 74.6884 82.1212 75.2756 81.7386C75.8665 81.3523 76.5559 81.1591 77.3438 81.1591C77.7983 81.1591 78.2472 81.2348 78.6903 81.3864C79.1335 81.5379 79.5369 81.7841 79.9006 82.125C80.2642 82.4621 80.554 82.9091 80.7699 83.4659C80.9858 84.0227 81.0938 84.7083 81.0938 85.5227V86.0909H74.3665V84.9318H79.7301C79.7301 84.4394 79.6316 84 79.4347 83.6136C79.2415 83.2273 78.965 82.9223 78.6051 82.6989C78.2491 82.4754 77.8286 82.3636 77.3438 82.3636C76.8097 82.3636 76.3475 82.4962 75.9574 82.7614C75.571 83.0227 75.2737 83.3636 75.0653 83.7841C74.857 84.2045 74.7528 84.6553 74.7528 85.1364V85.9091C74.7528 86.5682 74.8665 87.1269 75.0938 87.5852C75.3248 88.0398 75.6449 88.3864 76.054 88.625C76.4631 88.8598 76.9384 88.9773 77.4801 88.9773C77.8324 88.9773 78.1506 88.928 78.4347 88.8295C78.7225 88.7273 78.9706 88.5758 79.179 88.375C79.3873 88.1705 79.5483 87.9167 79.6619 87.6136L80.9574 87.9773C80.821 88.4167 80.5919 88.803 80.2699 89.1364C79.9479 89.4659 79.5502 89.7235 79.0767 89.9091C78.6032 90.0909 78.071 90.1818 77.4801 90.1818ZM84.4744 78.3636V90H83.1335V78.3636H84.4744ZM90.5895 90.1818C89.7486 90.1818 89.0232 89.9962 88.4134 89.625C87.8073 89.25 87.3395 88.7273 87.0099 88.0568C86.6842 87.3826 86.5213 86.5985 86.5213 85.7045C86.5213 84.8106 86.6842 84.0227 87.0099 83.3409C87.3395 82.6553 87.7978 82.1212 88.3849 81.7386C88.9759 81.3523 89.6652 81.1591 90.4531 81.1591C90.9077 81.1591 91.3565 81.2348 91.7997 81.3864C92.2429 81.5379 92.6463 81.7841 93.0099 82.125C93.3736 82.4621 93.6634 82.9091 93.8793 83.4659C94.0952 84.0227 94.2031 84.7083 94.2031 85.5227V86.0909H87.4759V84.9318H92.8395C92.8395 84.4394 92.741 84 92.544 83.6136C92.3509 83.2273 92.0743 82.9223 91.7145 82.6989C91.3584 82.4754 90.938 82.3636 90.4531 82.3636C89.919 82.3636 89.4569 82.4962 89.0668 82.7614C88.6804 83.0227 88.383 83.3636 88.1747 83.7841C87.9664 84.2045 87.8622 84.6553 87.8622 85.1364V85.9091C87.8622 86.5682 87.9759 87.1269 88.2031 87.5852C88.4342 88.0398 88.7543 88.3864 89.1634 88.625C89.5724 88.8598 90.0478 88.9773 90.5895 88.9773C90.9418 88.9773 91.2599 88.928 91.544 88.8295C91.8319 88.7273 92.08 88.5758 92.2884 88.375C92.4967 88.1705 92.6577 87.9167 92.7713 87.6136L94.0668 87.9773C93.9304 88.4167 93.7012 88.803 93.3793 89.1364C93.0573 89.4659 92.6596 89.7235 92.1861 89.9091C91.7126 90.0909 91.1804 90.1818 90.5895 90.1818ZM99.7884 90.1818C98.9702 90.1818 98.2656 89.9886 97.6747 89.6023C97.0838 89.2159 96.6293 88.6837 96.3111 88.0057C95.9929 87.3277 95.8338 86.553 95.8338 85.6818C95.8338 84.7955 95.9967 84.0133 96.3224 83.3352C96.652 82.6534 97.1103 82.1212 97.6974 81.7386C98.2884 81.3523 98.9777 81.1591 99.7656 81.1591C100.379 81.1591 100.932 81.2727 101.425 81.5C101.917 81.7273 102.321 82.0455 102.635 82.4545C102.949 82.8636 103.144 83.3409 103.22 83.8864H101.879C101.777 83.4886 101.55 83.1364 101.197 82.8295C100.849 82.5189 100.379 82.3636 99.7884 82.3636C99.2656 82.3636 98.8073 82.5 98.4134 82.7727C98.0232 83.0417 97.7183 83.4223 97.4986 83.9148C97.2827 84.4034 97.1747 84.9773 97.1747 85.6364C97.1747 86.3106 97.2808 86.8977 97.4929 87.3977C97.7088 87.8977 98.0118 88.286 98.402 88.5625C98.7959 88.839 99.258 88.9773 99.7884 88.9773C100.137 88.9773 100.453 88.9167 100.737 88.7955C101.021 88.6742 101.262 88.5 101.459 88.2727C101.656 88.0455 101.796 87.7727 101.879 87.4545H103.22C103.144 87.9697 102.957 88.4337 102.658 88.8466C102.362 89.2557 101.97 89.5814 101.482 89.8239C100.997 90.0625 100.432 90.1818 99.7884 90.1818ZM108.976 81.2727V82.4091H104.453V81.2727H108.976ZM105.771 79.1818H107.112V87.5C107.112 87.8788 107.167 88.1629 107.277 88.3523C107.391 88.5379 107.535 88.6629 107.709 88.7273C107.887 88.7879 108.074 88.8182 108.271 88.8182C108.419 88.8182 108.54 88.8106 108.635 88.7955C108.73 88.7765 108.805 88.7614 108.862 88.75L109.135 89.9545C109.044 89.9886 108.917 90.0227 108.754 90.0568C108.591 90.0947 108.385 90.1136 108.135 90.1136C107.756 90.1136 107.385 90.0322 107.021 89.8693C106.661 89.7064 106.362 89.4583 106.124 89.125C105.889 88.7917 105.771 88.3712 105.771 87.8636V79.1818ZM116.357 93.2727C116.129 93.2727 115.927 93.2538 115.749 93.2159C115.571 93.1818 115.447 93.1477 115.379 93.1136L115.72 91.9318C116.046 92.0152 116.334 92.0455 116.584 92.0227C116.834 92 117.055 91.8883 117.249 91.6875C117.446 91.4905 117.625 91.1705 117.788 90.7273L118.038 90.0455L114.811 81.2727H116.266L118.675 88.2273H118.766L121.175 81.2727H122.629L118.925 91.2727C118.758 91.7235 118.552 92.0966 118.305 92.392C118.059 92.6913 117.773 92.9129 117.447 93.0568C117.125 93.2008 116.762 93.2727 116.357 93.2727ZM127.632 90.1818C126.844 90.1818 126.153 89.9943 125.558 89.6193C124.967 89.2443 124.505 88.7197 124.172 88.0455C123.842 87.3712 123.678 86.5833 123.678 85.6818C123.678 84.7727 123.842 83.9792 124.172 83.3011C124.505 82.6231 124.967 82.0966 125.558 81.7216C126.153 81.3466 126.844 81.1591 127.632 81.1591C128.42 81.1591 129.109 81.3466 129.7 81.7216C130.295 82.0966 130.757 82.6231 131.087 83.3011C131.42 83.9792 131.587 84.7727 131.587 85.6818C131.587 86.5833 131.42 87.3712 131.087 88.0455C130.757 88.7197 130.295 89.2443 129.7 89.6193C129.109 89.9943 128.42 90.1818 127.632 90.1818ZM127.632 88.9773C128.231 88.9773 128.723 88.8239 129.109 88.517C129.496 88.2102 129.782 87.8068 129.967 87.3068C130.153 86.8068 130.246 86.2652 130.246 85.6818C130.246 85.0985 130.153 84.5549 129.967 84.0511C129.782 83.5473 129.496 83.1402 129.109 82.8295C128.723 82.5189 128.231 82.3636 127.632 82.3636C127.034 82.3636 126.541 82.5189 126.155 82.8295C125.768 83.1402 125.482 83.5473 125.297 84.0511C125.111 84.5549 125.018 85.0985 125.018 85.6818C125.018 86.2652 125.111 86.8068 125.297 87.3068C125.482 87.8068 125.768 88.2102 126.155 88.517C126.541 88.8239 127.034 88.9773 127.632 88.9773ZM139.134 86.4318V81.2727H140.474V90H139.134V88.5227H139.043C138.838 88.9659 138.52 89.3428 138.088 89.6534C137.656 89.9602 137.111 90.1136 136.452 90.1136C135.906 90.1136 135.421 89.9943 134.997 89.7557C134.573 89.5133 134.24 89.1496 133.997 88.6648C133.755 88.1761 133.634 87.5606 133.634 86.8182V81.2727H134.974V86.7273C134.974 87.3636 135.152 87.8712 135.509 88.25C135.868 88.6288 136.327 88.8182 136.884 88.8182C137.217 88.8182 137.556 88.733 137.901 88.5625C138.249 88.392 138.541 88.1307 138.776 87.7784C139.014 87.4261 139.134 86.9773 139.134 86.4318ZM142.93 90V81.2727H144.226V82.5909H144.317C144.476 82.1591 144.764 81.8087 145.18 81.5398C145.597 81.2708 146.067 81.1364 146.589 81.1364C146.688 81.1364 146.811 81.1383 146.959 81.142C147.107 81.1458 147.218 81.1515 147.294 81.1591V82.5227C147.249 82.5114 147.144 82.4943 146.982 82.4716C146.822 82.4451 146.654 82.4318 146.476 82.4318C146.052 82.4318 145.673 82.5208 145.339 82.6989C145.01 82.8731 144.749 83.1155 144.555 83.4261C144.366 83.733 144.271 84.0833 144.271 84.4773V90H142.93ZM156.929 90.1818C156.111 90.1818 155.406 89.9886 154.815 89.6023C154.224 89.2159 153.77 88.6837 153.452 88.0057C153.134 87.3277 152.974 86.553 152.974 85.6818C152.974 84.7955 153.137 84.0133 153.463 83.3352C153.793 82.6534 154.251 82.1212 154.838 81.7386C155.429 81.3523 156.118 81.1591 156.906 81.1591C157.52 81.1591 158.073 81.2727 158.565 81.5C159.058 81.7273 159.461 82.0455 159.776 82.4545C160.09 82.8636 160.285 83.3409 160.361 83.8864H159.02C158.918 83.4886 158.69 83.1364 158.338 82.8295C157.99 82.5189 157.52 82.3636 156.929 82.3636C156.406 82.3636 155.948 82.5 155.554 82.7727C155.164 83.0417 154.859 83.4223 154.639 83.9148C154.423 84.4034 154.315 84.9773 154.315 85.6364C154.315 86.3106 154.421 86.8977 154.634 87.3977C154.849 87.8977 155.152 88.286 155.543 88.5625C155.937 88.839 156.399 88.9773 156.929 88.9773C157.277 88.9773 157.594 88.9167 157.878 88.7955C158.162 88.6742 158.402 88.5 158.599 88.2727C158.796 88.0455 158.937 87.7727 159.02 87.4545H160.361C160.285 87.9697 160.098 88.4337 159.798 88.8466C159.503 89.2557 159.111 89.5814 158.622 89.8239C158.137 90.0625 157.573 90.1818 156.929 90.1818ZM162.321 90V81.2727H163.662V90H162.321ZM163.003 79.8182C162.741 79.8182 162.516 79.7292 162.327 79.5511C162.141 79.3731 162.048 79.1591 162.048 78.9091C162.048 78.6591 162.141 78.4451 162.327 78.267C162.516 78.089 162.741 78 163.003 78C163.264 78 163.488 78.089 163.673 78.267C163.863 78.4451 163.957 78.6591 163.957 78.9091C163.957 79.1591 163.863 79.3731 163.673 79.5511C163.488 79.7292 163.264 79.8182 163.003 79.8182ZM169.913 81.2727V82.4091H165.391V81.2727H169.913ZM166.709 79.1818H168.05V87.5C168.05 87.8788 168.105 88.1629 168.214 88.3523C168.328 88.5379 168.472 88.6629 168.646 88.7273C168.824 88.7879 169.012 88.8182 169.209 88.8182C169.357 88.8182 169.478 88.8106 169.572 88.7955C169.667 88.7765 169.743 88.7614 169.8 88.75L170.072 89.9545C169.982 89.9886 169.855 90.0227 169.692 90.0568C169.529 90.0947 169.322 90.1136 169.072 90.1136C168.694 90.1136 168.322 90.0322 167.959 89.8693C167.599 89.7064 167.3 89.4583 167.061 89.125C166.826 88.7917 166.709 88.3712 166.709 87.8636V79.1818ZM172.794 93.2727C172.567 93.2727 172.364 93.2538 172.186 93.2159C172.008 93.1818 171.885 93.1477 171.817 93.1136L172.158 91.9318C172.483 92.0152 172.771 92.0455 173.021 92.0227C173.271 92 173.493 91.8883 173.686 91.6875C173.883 91.4905 174.063 91.1705 174.226 90.7273L174.476 90.0455L171.249 81.2727H172.703L175.112 88.2273H175.203L177.612 81.2727H179.067L175.362 91.2727C175.196 91.7235 174.989 92.0966 174.743 92.392C174.497 92.6913 174.211 92.9129 173.885 93.0568C173.563 93.2008 173.199 93.2727 172.794 93.2727Z" fill="#889099"/>
<path d="M207.5 81L200 88.5L192.5 81" stroke="#4A60A1" stroke-width="1.5" stroke-linecap="round" stroke-linejoin="round"/>
<path d="M315.148 50V38.3636H319.511C320.405 38.3636 321.155 38.5303 321.761 38.8636C322.371 39.197 322.831 39.6553 323.142 40.2386C323.456 40.8182 323.614 41.4773 323.614 42.2159C323.614 42.9621 323.456 43.625 323.142 44.2045C322.828 44.7841 322.364 45.2405 321.75 45.5739C321.136 45.9034 320.381 46.0682 319.483 46.0682H316.591V44.3352H319.199C319.722 44.3352 320.15 44.2443 320.483 44.0625C320.816 43.8807 321.063 43.6307 321.222 43.3125C321.384 42.9943 321.466 42.6288 321.466 42.2159C321.466 41.803 321.384 41.4394 321.222 41.125C321.063 40.8106 320.814 40.5663 320.477 40.392C320.144 40.214 319.714 40.125 319.188 40.125H317.256V50H315.148ZM325.354 50V41.2727H327.348V42.7273H327.439C327.598 42.2235 327.871 41.8352 328.257 41.5625C328.647 41.286 329.092 41.1477 329.592 41.1477C329.706 41.1477 329.833 41.1534 329.973 41.1648C330.117 41.1723 330.236 41.1856 330.331 41.2045V43.0966C330.244 43.0663 330.106 43.0398 329.916 43.017C329.731 42.9905 329.551 42.9773 329.376 42.9773C329.001 42.9773 328.664 43.0587 328.365 43.2216C328.07 43.3807 327.837 43.6023 327.666 43.8864C327.496 44.1705 327.411 44.4981 327.411 44.8693V50H325.354ZM335.145 50.1705C334.293 50.1705 333.554 49.983 332.929 49.608C332.304 49.233 331.819 48.7083 331.474 48.0341C331.134 47.3598 330.963 46.572 330.963 45.6705C330.963 44.7689 331.134 43.9792 331.474 43.3011C331.819 42.6231 332.304 42.0966 332.929 41.7216C333.554 41.3466 334.293 41.1591 335.145 41.1591C335.997 41.1591 336.736 41.3466 337.361 41.7216C337.986 42.0966 338.469 42.6231 338.81 43.3011C339.154 43.9792 339.327 44.7689 339.327 45.6705C339.327 46.572 339.154 47.3598 338.81 48.0341C338.469 48.7083 337.986 49.233 337.361 49.608C336.736 49.983 335.997 50.1705 335.145 50.1705ZM335.156 48.5227C335.618 48.5227 336.005 48.3958 336.315 48.142C336.626 47.8845 336.857 47.5398 337.009 47.108C337.164 46.6761 337.241 46.1951 337.241 45.6648C337.241 45.1307 337.164 44.6477 337.009 44.2159C336.857 43.7803 336.626 43.4337 336.315 43.1761C336.005 42.9186 335.618 42.7898 335.156 42.7898C334.683 42.7898 334.289 42.9186 333.974 43.1761C333.664 43.4337 333.431 43.7803 333.276 44.2159C333.124 44.6477 333.048 45.1307 333.048 45.6648C333.048 46.1951 333.124 46.6761 333.276 47.108C333.431 47.5398 333.664 47.8845 333.974 48.142C334.289 48.3958 334.683 48.5227 335.156 48.5227ZM341.072 53.2727V41.2727H343.095V42.7159H343.214C343.321 42.5038 343.47 42.2784 343.663 42.0398C343.857 41.7973 344.118 41.5909 344.447 41.4205C344.777 41.2462 345.197 41.1591 345.709 41.1591C346.383 41.1591 346.991 41.3314 347.533 41.6761C348.078 42.017 348.51 42.5227 348.828 43.1932C349.15 43.8598 349.311 44.678 349.311 45.6477C349.311 46.6061 349.154 47.4205 348.839 48.0909C348.525 48.7614 348.097 49.2727 347.555 49.625C347.014 49.9773 346.4 50.1534 345.714 50.1534C345.214 50.1534 344.8 50.0701 344.47 49.9034C344.141 49.7367 343.875 49.536 343.675 49.3011C343.478 49.0625 343.324 48.8371 343.214 48.625H343.129V53.2727H341.072ZM343.089 45.6364C343.089 46.2008 343.169 46.6951 343.328 47.1193C343.491 47.5436 343.724 47.875 344.027 48.1136C344.334 48.3485 344.705 48.4659 345.141 48.4659C345.595 48.4659 345.976 48.3447 346.283 48.1023C346.589 47.8561 346.821 47.5208 346.976 47.0966C347.135 46.6686 347.214 46.1818 347.214 45.6364C347.214 45.0947 347.137 44.6136 346.982 44.1932C346.826 43.7727 346.595 43.4432 346.288 43.2045C345.982 42.9659 345.599 42.8466 345.141 42.8466C344.701 42.8466 344.328 42.9621 344.021 43.1932C343.714 43.4242 343.482 43.7481 343.322 44.1648C343.167 44.5814 343.089 45.072 343.089 45.6364ZM354.936 50.1705C354.061 50.1705 353.305 49.9886 352.669 49.625C352.036 49.2576 351.55 48.7386 351.209 48.0682C350.868 47.3939 350.697 46.6004 350.697 45.6875C350.697 44.7898 350.868 44.0019 351.209 43.3239C351.554 42.642 352.035 42.1117 352.652 41.733C353.269 41.3504 353.995 41.1591 354.828 41.1591C355.366 41.1591 355.874 41.2462 356.351 41.4205C356.832 41.5909 357.256 41.8561 357.624 42.2159C357.995 42.5758 358.286 43.0341 358.499 43.5909C358.711 44.1439 358.817 44.803 358.817 45.5682V46.1989H351.663V44.8125H356.845C356.841 44.4186 356.756 44.0682 356.589 43.7614C356.423 43.4508 356.19 43.2064 355.891 43.0284C355.595 42.8504 355.25 42.7614 354.857 42.7614C354.436 42.7614 354.067 42.8636 353.749 43.0682C353.43 43.2689 353.182 43.5341 353.004 43.8636C352.83 44.1894 352.741 44.5473 352.737 44.9375V46.1477C352.737 46.6553 352.83 47.0909 353.016 47.4545C353.201 47.8144 353.461 48.0909 353.794 48.2841C354.127 48.4735 354.518 48.5682 354.964 48.5682C355.264 48.5682 355.535 48.5265 355.777 48.4432C356.019 48.3561 356.23 48.2292 356.408 48.0625C356.586 47.8958 356.72 47.6894 356.811 47.4432L358.732 47.6591C358.61 48.1667 358.379 48.6098 358.038 48.9886C357.701 49.3636 357.269 49.6553 356.743 49.8636C356.216 50.0682 355.614 50.1705 354.936 50.1705ZM360.557 50V41.2727H362.551V42.7273H362.642C362.801 42.2235 363.074 41.8352 363.46 41.5625C363.85 41.286 364.295 41.1477 364.795 41.1477C364.909 41.1477 365.036 41.1534 365.176 41.1648C365.32 41.1723 365.439 41.1856 365.534 41.2045V43.0966C365.447 43.0663 365.309 43.0398 365.119 43.017C364.934 42.9905 364.754 42.9773 364.58 42.9773C364.205 42.9773 363.867 43.0587 363.568 43.2216C363.273 43.3807 363.04 43.6023 362.869 43.8864C362.699 44.1705 362.614 44.4981 362.614 44.8693V50H360.557ZM371.727 41.2727V42.8636H366.71V41.2727H371.727ZM367.949 39.1818H370.006V47.375C370.006 47.6515 370.047 47.8636 370.131 48.0114C370.218 48.1553 370.331 48.2538 370.472 48.3068C370.612 48.3598 370.767 48.3864 370.938 48.3864C371.066 48.3864 371.184 48.3769 371.29 48.358C371.4 48.339 371.483 48.322 371.54 48.3068L371.886 49.9148C371.777 49.9527 371.619 49.9943 371.415 50.0398C371.214 50.0852 370.968 50.1117 370.676 50.1193C370.161 50.1345 369.697 50.0568 369.284 49.8864C368.871 49.7121 368.544 49.4432 368.301 49.0795C368.063 48.7159 367.945 48.2614 367.949 47.7159V39.1818ZM374.726 53.2727C374.446 53.2727 374.186 53.25 373.947 53.2045C373.713 53.1629 373.525 53.1136 373.385 53.0568L373.862 51.4545C374.161 51.5417 374.429 51.5833 374.663 51.5795C374.898 51.5758 375.105 51.5019 375.283 51.358C375.464 51.2178 375.618 50.983 375.743 50.6534L375.919 50.1818L372.754 41.2727H374.936L376.947 47.8636H377.038L379.055 41.2727H381.243L377.749 51.0568C377.586 51.5189 377.37 51.9148 377.101 52.2443C376.832 52.5777 376.502 52.8314 376.112 53.0057C375.726 53.1837 375.264 53.2727 374.726 53.2727ZM386.214 40.1307V38.3636H395.499V40.1307H391.902V50H389.811V40.1307H386.214ZM397.476 53.2727C397.196 53.2727 396.936 53.25 396.697 53.2045C396.463 53.1629 396.275 53.1136 396.135 53.0568L396.612 51.4545C396.911 51.5417 397.179 51.5833 397.413 51.5795C397.648 51.5758 397.855 51.5019 398.033 51.358C398.214 51.2178 398.368 50.983 398.493 50.6534L398.669 50.1818L395.504 41.2727H397.686L399.697 47.8636H399.788L401.805 41.2727H403.993L400.499 51.0568C400.336 51.5189 400.12 51.9148 399.851 52.2443C399.582 52.5777 399.252 52.8314 398.862 53.0057C398.476 53.1837 398.014 53.2727 397.476 53.2727ZM405.416 53.2727V41.2727H407.439V42.7159H407.558C407.664 42.5038 407.814 42.2784 408.007 42.0398C408.2 41.7973 408.462 41.5909 408.791 41.4205C409.121 41.2462 409.541 41.1591 410.053 41.1591C410.727 41.1591 411.335 41.3314 411.876 41.6761C412.422 42.017 412.854 42.5227 413.172 43.1932C413.494 43.8598 413.655 44.678 413.655 45.6477C413.655 46.6061 413.498 47.4205 413.183 48.0909C412.869 48.7614 412.441 49.2727 411.899 49.625C411.357 49.9773 410.744 50.1534 410.058 50.1534C409.558 50.1534 409.143 50.0701 408.814 49.9034C408.484 49.7367 408.219 49.536 408.018 49.3011C407.821 49.0625 407.668 48.8371 407.558 48.625H407.473V53.2727H405.416ZM407.433 45.6364C407.433 46.2008 407.513 46.6951 407.672 47.1193C407.835 47.5436 408.068 47.875 408.371 48.1136C408.678 48.3485 409.049 48.4659 409.484 48.4659C409.939 48.4659 410.32 48.3447 410.626 48.1023C410.933 47.8561 411.164 47.5208 411.32 47.0966C411.479 46.6686 411.558 46.1818 411.558 45.6364C411.558 45.0947 411.481 44.6136 411.325 44.1932C411.17 43.7727 410.939 43.4432 410.632 43.2045C410.325 42.9659 409.943 42.8466 409.484 42.8466C409.045 42.8466 408.672 42.9621 408.365 43.1932C408.058 43.4242 407.825 43.7481 407.666 44.1648C407.511 44.5814 407.433 45.072 407.433 45.6364ZM419.28 50.1705C418.405 50.1705 417.649 49.9886 417.013 49.625C416.38 49.2576 415.893 48.7386 415.553 48.0682C415.212 47.3939 415.041 46.6004 415.041 45.6875C415.041 44.7898 415.212 44.0019 415.553 43.3239C415.897 42.642 416.378 42.1117 416.996 41.733C417.613 41.3504 418.339 41.1591 419.172 41.1591C419.71 41.1591 420.217 41.2462 420.695 41.4205C421.176 41.5909 421.6 41.8561 421.967 42.2159C422.339 42.5758 422.63 43.0341 422.842 43.5909C423.054 44.1439 423.161 44.803 423.161 45.5682V46.1989H416.007V44.8125H421.189C421.185 44.4186 421.1 44.0682 420.933 43.7614C420.767 43.4508 420.534 43.2064 420.234 43.0284C419.939 42.8504 419.594 42.7614 419.2 42.7614C418.78 42.7614 418.411 42.8636 418.092 43.0682C417.774 43.2689 417.526 43.5341 417.348 43.8636C417.174 44.1894 417.085 44.5473 417.081 44.9375V46.1477C417.081 46.6553 417.174 47.0909 417.359 47.4545C417.545 47.8144 417.804 48.0909 418.138 48.2841C418.471 48.4735 418.861 48.5682 419.308 48.5682C419.607 48.5682 419.878 48.5265 420.121 48.4432C420.363 48.3561 420.573 48.2292 420.751 48.0625C420.929 47.8958 421.064 47.6894 421.155 47.4432L423.075 47.6591C422.954 48.1667 422.723 48.6098 422.382 48.9886C422.045 49.3636 421.613 49.6553 421.087 49.8636C420.56 50.0682 419.958 50.1705 419.28 50.1705Z" fill="#2C3A61"/>
<path d="M322.062 81.2727C321.994 80.697 321.717 80.25 321.232 79.9318C320.747 79.6136 320.153 79.4545 319.448 79.4545C318.933 79.4545 318.482 79.5379 318.096 79.7045C317.713 79.8712 317.414 80.1004 317.198 80.392C316.986 80.6837 316.88 81.0152 316.88 81.3864C316.88 81.697 316.954 81.964 317.102 82.1875C317.253 82.4072 317.446 82.5909 317.681 82.7386C317.916 82.8826 318.162 83.0019 318.42 83.0966C318.677 83.1875 318.914 83.2614 319.13 83.3182L320.312 83.6364C320.615 83.7159 320.952 83.8258 321.323 83.9659C321.698 84.1061 322.056 84.2973 322.397 84.5398C322.742 84.7784 323.026 85.0852 323.249 85.4602C323.473 85.8352 323.585 86.2955 323.585 86.8409C323.585 87.4697 323.42 88.0379 323.09 88.5455C322.764 89.053 322.287 89.4564 321.658 89.7557C321.033 90.0549 320.274 90.2045 319.38 90.2045C318.547 90.2045 317.825 90.0701 317.215 89.8011C316.609 89.5322 316.132 89.1572 315.783 88.6761C315.439 88.1951 315.244 87.6364 315.198 87H316.653C316.691 87.4394 316.838 87.803 317.096 88.0909C317.357 88.375 317.687 88.5871 318.085 88.7273C318.486 88.8636 318.918 88.9318 319.38 88.9318C319.918 88.9318 320.401 88.8447 320.829 88.6705C321.257 88.4924 321.596 88.2462 321.846 87.9318C322.096 87.6136 322.221 87.2424 322.221 86.8182C322.221 86.4318 322.113 86.1174 321.897 85.875C321.681 85.6326 321.397 85.4356 321.045 85.2841C320.692 85.1326 320.312 85 319.903 84.8864L318.471 84.4773C317.562 84.2159 316.842 83.8428 316.312 83.358C315.781 82.8731 315.516 82.2386 315.516 81.4545C315.516 80.803 315.692 80.2348 316.045 79.75C316.401 79.2614 316.878 78.8826 317.477 78.6136C318.079 78.3409 318.751 78.2045 319.494 78.2045C320.244 78.2045 320.91 78.339 321.494 78.608C322.077 78.8731 322.539 79.2367 322.88 79.6989C323.225 80.161 323.406 80.6856 323.425 81.2727H322.062ZM329.379 90.1818C328.538 90.1818 327.812 89.9962 327.202 89.625C326.596 89.25 326.129 88.7273 325.799 88.0568C325.473 87.3826 325.31 86.5985 325.31 85.7045C325.31 84.8106 325.473 84.0227 325.799 83.3409C326.129 82.6553 326.587 82.1212 327.174 81.7386C327.765 81.3523 328.454 81.1591 329.242 81.1591C329.697 81.1591 330.146 81.2348 330.589 81.3864C331.032 81.5379 331.435 81.7841 331.799 82.125C332.163 82.4621 332.452 82.9091 332.668 83.4659C332.884 84.0227 332.992 84.7083 332.992 85.5227V86.0909H326.265V84.9318H331.629C331.629 84.4394 331.53 84 331.333 83.6136C331.14 83.2273 330.863 82.9223 330.504 82.6989C330.147 82.4754 329.727 82.3636 329.242 82.3636C328.708 82.3636 328.246 82.4962 327.856 82.7614C327.469 83.0227 327.172 83.3636 326.964 83.7841C326.755 84.2045 326.651 84.6553 326.651 85.1364V85.9091C326.651 86.5682 326.765 87.1269 326.992 87.5852C327.223 88.0398 327.543 88.3864 327.952 88.625C328.362 88.8598 328.837 88.9773 329.379 88.9773C329.731 88.9773 330.049 88.928 330.333 88.8295C330.621 88.7273 330.869 88.5758 331.077 88.375C331.286 88.1705 331.447 87.9167 331.56 87.6136L332.856 87.9773C332.719 88.4167 332.49 88.803 332.168 89.1364C331.846 89.4659 331.449 89.7235 330.975 89.9091C330.502 90.0909 329.969 90.1818 329.379 90.1818ZM336.373 78.3636V90H335.032V78.3636H336.373ZM342.488 90.1818C341.647 90.1818 340.922 89.9962 340.312 89.625C339.706 89.25 339.238 88.7273 338.908 88.0568C338.583 87.3826 338.42 86.5985 338.42 85.7045C338.42 84.8106 338.583 84.0227 338.908 83.3409C339.238 82.6553 339.696 82.1212 340.283 81.7386C340.874 81.3523 341.564 81.1591 342.352 81.1591C342.806 81.1591 343.255 81.2348 343.698 81.3864C344.141 81.5379 344.545 81.7841 344.908 82.125C345.272 82.4621 345.562 82.9091 345.778 83.4659C345.994 84.0227 346.102 84.7083 346.102 85.5227V86.0909H339.374V84.9318H344.738C344.738 84.4394 344.639 84 344.442 83.6136C344.249 83.2273 343.973 82.9223 343.613 82.6989C343.257 82.4754 342.836 82.3636 342.352 82.3636C341.817 82.3636 341.355 82.4962 340.965 82.7614C340.579 83.0227 340.281 83.3636 340.073 83.7841C339.865 84.2045 339.761 84.6553 339.761 85.1364V85.9091C339.761 86.5682 339.874 87.1269 340.102 87.5852C340.333 88.0398 340.653 88.3864 341.062 88.625C341.471 88.8598 341.946 88.9773 342.488 88.9773C342.84 88.9773 343.158 88.928 343.442 88.8295C343.73 88.7273 343.978 88.5758 344.187 88.375C344.395 88.1705 344.556 87.9167 344.67 87.6136L345.965 87.9773C345.829 88.4167 345.6 88.803 345.278 89.1364C344.956 89.4659 344.558 89.7235 344.085 89.9091C343.611 90.0909 343.079 90.1818 342.488 90.1818ZM351.687 90.1818C350.869 90.1818 350.164 89.9886 349.573 89.6023C348.982 89.2159 348.528 88.6837 348.21 88.0057C347.891 87.3277 347.732 86.553 347.732 85.6818C347.732 84.7955 347.895 84.0133 348.221 83.3352C348.55 82.6534 349.009 82.1212 349.596 81.7386C350.187 81.3523 350.876 81.1591 351.664 81.1591C352.278 81.1591 352.831 81.2727 353.323 81.5C353.816 81.7273 354.219 82.0455 354.533 82.4545C354.848 82.8636 355.043 83.3409 355.119 83.8864H353.778C353.675 83.4886 353.448 83.1364 353.096 82.8295C352.747 82.5189 352.278 82.3636 351.687 82.3636C351.164 82.3636 350.706 82.5 350.312 82.7727C349.922 83.0417 349.617 83.4223 349.397 83.9148C349.181 84.4034 349.073 84.9773 349.073 85.6364C349.073 86.3106 349.179 86.8977 349.391 87.3977C349.607 87.8977 349.91 88.286 350.3 88.5625C350.694 88.839 351.156 88.9773 351.687 88.9773C352.035 88.9773 352.352 88.9167 352.636 88.7955C352.92 88.6742 353.16 88.5 353.357 88.2727C353.554 88.0455 353.694 87.7727 353.778 87.4545H355.119C355.043 87.9697 354.855 88.4337 354.556 88.8466C354.261 89.2557 353.869 89.5814 353.38 89.8239C352.895 90.0625 352.331 90.1818 351.687 90.1818ZM360.874 81.2727V82.4091H356.352V81.2727H360.874ZM357.67 79.1818H359.011V87.5C359.011 87.8788 359.066 88.1629 359.175 88.3523C359.289 88.5379 359.433 88.6629 359.607 88.7273C359.785 88.7879 359.973 88.8182 360.17 88.8182C360.317 88.8182 360.439 88.8106 360.533 88.7955C360.628 88.7765 360.704 88.7614 360.761 88.75L361.033 89.9545C360.942 89.9886 360.816 90.0227 360.653 90.0568C360.49 90.0947 360.283 90.1136 360.033 90.1136C359.655 90.1136 359.283 90.0322 358.92 89.8693C358.56 89.7064 358.261 89.4583 358.022 89.125C357.787 88.7917 357.67 88.3712 357.67 87.8636V79.1818ZM367.391 93.2727V81.2727H368.687V82.6591H368.846C368.944 82.5076 369.081 82.3144 369.255 82.0795C369.433 81.8409 369.687 81.6288 370.016 81.4432C370.35 81.2538 370.8 81.1591 371.369 81.1591C372.103 81.1591 372.751 81.3428 373.312 81.7102C373.872 82.0777 374.31 82.5985 374.624 83.2727C374.939 83.947 375.096 84.7424 375.096 85.6591C375.096 86.5833 374.939 87.3845 374.624 88.0625C374.31 88.7367 373.874 89.2595 373.317 89.6307C372.761 89.9981 372.119 90.1818 371.391 90.1818C370.831 90.1818 370.382 90.089 370.045 89.9034C369.708 89.714 369.448 89.5 369.266 89.2614C369.085 89.0189 368.944 88.8182 368.846 88.6591H368.732V93.2727H367.391ZM368.71 85.6364C368.71 86.2955 368.806 86.8769 368.999 87.3807C369.192 87.8807 369.475 88.2727 369.846 88.5568C370.217 88.8371 370.672 88.9773 371.21 88.9773C371.77 88.9773 372.238 88.8295 372.613 88.5341C372.992 88.2348 373.276 87.8333 373.465 87.3295C373.658 86.822 373.755 86.2576 373.755 85.6364C373.755 85.0227 373.66 84.4697 373.471 83.9773C373.285 83.4811 373.003 83.089 372.624 82.8011C372.249 82.5095 371.778 82.3636 371.21 82.3636C370.664 82.3636 370.206 82.5019 369.835 82.7784C369.463 83.0511 369.183 83.4337 368.994 83.9261C368.804 84.4148 368.71 84.9848 368.71 85.6364ZM377.141 90V81.2727H378.437V82.5909H378.528C378.687 82.1591 378.975 81.8087 379.391 81.5398C379.808 81.2708 380.278 81.1364 380.8 81.1364C380.899 81.1364 381.022 81.1383 381.17 81.142C381.317 81.1458 381.429 81.1515 381.505 81.1591V82.5227C381.46 82.5114 381.355 82.4943 381.192 82.4716C381.033 82.4451 380.865 82.4318 380.687 82.4318C380.263 82.4318 379.884 82.5208 379.55 82.6989C379.221 82.8731 378.96 83.1155 378.766 83.4261C378.577 83.733 378.482 84.0833 378.482 84.4773V90H377.141ZM386.374 90.1818C385.586 90.1818 384.895 89.9943 384.3 89.6193C383.71 89.2443 383.247 88.7197 382.914 88.0455C382.585 87.3712 382.42 86.5833 382.42 85.6818C382.42 84.7727 382.585 83.9792 382.914 83.3011C383.247 82.6231 383.71 82.0966 384.3 81.7216C384.895 81.3466 385.586 81.1591 386.374 81.1591C387.162 81.1591 387.852 81.3466 388.442 81.7216C389.037 82.0966 389.499 82.6231 389.829 83.3011C390.162 83.9792 390.329 84.7727 390.329 85.6818C390.329 86.5833 390.162 87.3712 389.829 88.0455C389.499 88.7197 389.037 89.2443 388.442 89.6193C387.852 89.9943 387.162 90.1818 386.374 90.1818ZM386.374 88.9773C386.973 88.9773 387.465 88.8239 387.852 88.517C388.238 88.2102 388.524 87.8068 388.71 87.3068C388.895 86.8068 388.988 86.2652 388.988 85.6818C388.988 85.0985 388.895 84.5549 388.71 84.0511C388.524 83.5473 388.238 83.1402 387.852 82.8295C387.465 82.5189 386.973 82.3636 386.374 82.3636C385.776 82.3636 385.283 82.5189 384.897 82.8295C384.511 83.1402 384.225 83.5473 384.039 84.0511C383.853 84.5549 383.761 85.0985 383.761 85.6818C383.761 86.2652 383.853 86.8068 384.039 87.3068C384.225 87.8068 384.511 88.2102 384.897 88.517C385.283 88.8239 385.776 88.9773 386.374 88.9773ZM392.376 93.2727V81.2727H393.671V82.6591H393.83C393.929 82.5076 394.065 82.3144 394.239 82.0795C394.417 81.8409 394.671 81.6288 395.001 81.4432C395.334 81.2538 395.785 81.1591 396.353 81.1591C397.088 81.1591 397.736 81.3428 398.296 81.7102C398.857 82.0777 399.294 82.5985 399.609 83.2727C399.923 83.947 400.08 84.7424 400.08 85.6591C400.08 86.5833 399.923 87.3845 399.609 88.0625C399.294 88.7367 398.859 89.2595 398.302 89.6307C397.745 89.9981 397.103 90.1818 396.376 90.1818C395.815 90.1818 395.366 90.089 395.029 89.9034C394.692 89.714 394.433 89.5 394.251 89.2614C394.069 89.0189 393.929 88.8182 393.83 88.6591H393.717V93.2727H392.376ZM393.694 85.6364C393.694 86.2955 393.79 86.8769 393.984 87.3807C394.177 87.8807 394.459 88.2727 394.83 88.5568C395.201 88.8371 395.656 88.9773 396.194 88.9773C396.754 88.9773 397.222 88.8295 397.597 88.5341C397.976 88.2348 398.26 87.8333 398.45 87.3295C398.643 86.822 398.739 86.2576 398.739 85.6364C398.739 85.0227 398.645 84.4697 398.455 83.9773C398.27 83.4811 397.987 83.089 397.609 82.8011C397.234 82.5095 396.762 82.3636 396.194 82.3636C395.648 82.3636 395.19 82.5019 394.819 82.7784C394.448 83.0511 394.167 83.4337 393.978 83.9261C393.789 84.4148 393.694 84.9848 393.694 85.6364ZM405.785 90.1818C404.944 90.1818 404.219 89.9962 403.609 89.625C403.003 89.25 402.535 88.7273 402.205 88.0568C401.879 87.3826 401.717 86.5985 401.717 85.7045C401.717 84.8106 401.879 84.0227 402.205 83.3409C402.535 82.6553 402.993 82.1212 403.58 81.7386C404.171 81.3523 404.861 81.1591 405.648 81.1591C406.103 81.1591 406.552 81.2348 406.995 81.3864C407.438 81.5379 407.842 81.7841 408.205 82.125C408.569 82.4621 408.859 82.9091 409.075 83.4659C409.29 84.0227 409.398 84.7083 409.398 85.5227V86.0909H402.671V84.9318H408.035C408.035 84.4394 407.936 84 407.739 83.6136C407.546 83.2273 407.27 82.9223 406.91 82.6989C406.554 82.4754 406.133 82.3636 405.648 82.3636C405.114 82.3636 404.652 82.4962 404.262 82.7614C403.876 83.0227 403.578 83.3636 403.37 83.7841C403.162 84.2045 403.058 84.6553 403.058 85.1364V85.9091C403.058 86.5682 403.171 87.1269 403.398 87.5852C403.629 88.0398 403.95 88.3864 404.359 88.625C404.768 88.8598 405.243 88.9773 405.785 88.9773C406.137 88.9773 406.455 88.928 406.739 88.8295C407.027 88.7273 407.275 88.5758 407.484 88.375C407.692 88.1705 407.853 87.9167 407.967 87.6136L409.262 87.9773C409.126 88.4167 408.897 88.803 408.575 89.1364C408.253 89.4659 407.855 89.7235 407.381 89.9091C406.908 90.0909 406.376 90.1818 405.785 90.1818ZM411.438 90V81.2727H412.734V82.5909H412.825C412.984 82.1591 413.272 81.8087 413.688 81.5398C414.105 81.2708 414.575 81.1364 415.097 81.1364C415.196 81.1364 415.319 81.1383 415.467 81.142C415.614 81.1458 415.726 81.1515 415.802 81.1591V82.5227C415.756 82.5114 415.652 82.4943 415.489 82.4716C415.33 82.4451 415.162 82.4318 414.984 82.4318C414.559 82.4318 414.181 82.5208 413.847 82.6989C413.518 82.8731 413.256 83.1155 413.063 83.4261C412.874 83.733 412.779 84.0833 412.779 84.4773V90H411.438ZM421.734 81.2727V82.4091H417.211V81.2727H421.734ZM418.529 79.1818H419.87V87.5C419.87 87.8788 419.925 88.1629 420.035 88.3523C420.148 88.5379 420.292 88.6629 420.467 88.7273C420.645 88.7879 420.832 88.8182 421.029 88.8182C421.177 88.8182 421.298 88.8106 421.393 88.7955C421.487 88.7765 421.563 88.7614 421.62 88.75L421.893 89.9545C421.802 89.9886 421.675 90.0227 421.512 90.0568C421.349 90.0947 421.143 90.1136 420.893 90.1136C420.514 90.1136 420.143 90.0322 419.779 89.8693C419.419 89.7064 419.12 89.4583 418.881 89.125C418.647 88.7917 418.529 88.3712 418.529 87.8636V79.1818ZM424.614 93.2727C424.387 93.2727 424.184 93.2538 424.006 93.2159C423.828 93.1818 423.705 93.1477 423.637 93.1136L423.978 91.9318C424.304 92.0152 424.592 92.0455 424.842 92.0227C425.092 92 425.313 91.8883 425.506 91.6875C425.703 91.4905 425.883 91.1705 426.046 90.7273L426.296 90.0455L423.069 81.2727H424.523L426.933 88.2273H427.023L429.433 81.2727H430.887L427.183 91.2727C427.016 91.7235 426.809 92.0966 426.563 92.392C426.317 92.6913 426.031 92.9129 425.705 93.0568C425.383 93.2008 425.02 93.2727 424.614 93.2727ZM440.952 81.2727V82.4091H436.43V81.2727H440.952ZM437.748 79.1818H439.089V87.5C439.089 87.8788 439.144 88.1629 439.254 88.3523C439.367 88.5379 439.511 88.6629 439.685 88.7273C439.863 88.7879 440.051 88.8182 440.248 88.8182C440.396 88.8182 440.517 88.8106 440.612 88.7955C440.706 88.7765 440.782 88.7614 440.839 88.75L441.112 89.9545C441.021 89.9886 440.894 90.0227 440.731 90.0568C440.568 90.0947 440.362 90.1136 440.112 90.1136C439.733 90.1136 439.362 90.0322 438.998 89.8693C438.638 89.7064 438.339 89.4583 438.1 89.125C437.865 88.7917 437.748 88.3712 437.748 87.8636V79.1818ZM443.833 93.2727C443.606 93.2727 443.403 93.2538 443.225 93.2159C443.047 93.1818 442.924 93.1477 442.856 93.1136L443.197 91.9318C443.522 92.0152 443.81 92.0455 444.06 92.0227C444.31 92 444.532 91.8883 444.725 91.6875C444.922 91.4905 445.102 91.1705 445.265 90.7273L445.515 90.0455L442.288 81.2727H443.742L446.151 88.2273H446.242L448.651 81.2727H450.106L446.401 91.2727C446.235 91.7235 446.028 92.0966 445.782 92.392C445.536 92.6913 445.25 92.9129 444.924 93.0568C444.602 93.2008 444.238 93.2727 443.833 93.2727ZM451.876 93.2727V81.2727H453.171V82.6591H453.33C453.429 82.5076 453.565 82.3144 453.739 82.0795C453.917 81.8409 454.171 81.6288 454.501 81.4432C454.834 81.2538 455.285 81.1591 455.853 81.1591C456.588 81.1591 457.236 81.3428 457.796 81.7102C458.357 82.0777 458.794 82.5985 459.109 83.2727C459.423 83.947 459.58 84.7424 459.58 85.6591C459.58 86.5833 459.423 87.3845 459.109 88.0625C458.794 88.7367 458.359 89.2595 457.802 89.6307C457.245 89.9981 456.603 90.1818 455.876 90.1818C455.315 90.1818 454.866 90.089 454.529 89.9034C454.192 89.714 453.933 89.5 453.751 89.2614C453.569 89.0189 453.429 88.8182 453.33 88.6591H453.217V93.2727H451.876ZM453.194 85.6364C453.194 86.2955 453.29 86.8769 453.484 87.3807C453.677 87.8807 453.959 88.2727 454.33 88.5568C454.701 88.8371 455.156 88.9773 455.694 88.9773C456.254 88.9773 456.722 88.8295 457.097 88.5341C457.476 88.2348 457.76 87.8333 457.95 87.3295C458.143 86.822 458.239 86.2576 458.239 85.6364C458.239 85.0227 458.145 84.4697 457.955 83.9773C457.77 83.4811 457.487 83.089 457.109 82.8011C456.734 82.5095 456.262 82.3636 455.694 82.3636C455.148 82.3636 454.69 82.5019 454.319 82.7784C453.948 83.0511 453.667 83.4337 453.478 83.9261C453.289 84.4148 453.194 84.9848 453.194 85.6364ZM465.285 90.1818C464.444 90.1818 463.719 89.9962 463.109 89.625C462.503 89.25 462.035 88.7273 461.705 88.0568C461.379 87.3826 461.217 86.5985 461.217 85.7045C461.217 84.8106 461.379 84.0227 461.705 83.3409C462.035 82.6553 462.493 82.1212 463.08 81.7386C463.671 81.3523 464.361 81.1591 465.148 81.1591C465.603 81.1591 466.052 81.2348 466.495 81.3864C466.938 81.5379 467.342 81.7841 467.705 82.125C468.069 82.4621 468.359 82.9091 468.575 83.4659C468.79 84.0227 468.898 84.7083 468.898 85.5227V86.0909H462.171V84.9318H467.535C467.535 84.4394 467.436 84 467.239 83.6136C467.046 83.2273 466.77 82.9223 466.41 82.6989C466.054 82.4754 465.633 82.3636 465.148 82.3636C464.614 82.3636 464.152 82.4962 463.762 82.7614C463.376 83.0227 463.078 83.3636 462.87 83.7841C462.662 84.2045 462.558 84.6553 462.558 85.1364V85.9091C462.558 86.5682 462.671 87.1269 462.898 87.5852C463.129 88.0398 463.45 88.3864 463.859 88.625C464.268 88.8598 464.743 88.9773 465.285 88.9773C465.637 88.9773 465.955 88.928 466.239 88.8295C466.527 88.7273 466.775 88.5758 466.984 88.375C467.192 88.1705 467.353 87.9167 467.467 87.6136L468.762 87.9773C468.626 88.4167 468.397 88.803 468.075 89.1364C467.753 89.4659 467.355 89.7235 466.881 89.9091C466.408 90.0909 465.876 90.1818 465.285 90.1818Z" fill="#889099"/>
<path d="M497.5 81L490 88.5L482.5 81" stroke="#4A60A1" stroke-width="1.5" stroke-linecap="round" stroke-linejoin="round"/>
<path d="M602.148 50V38.3636H606.511C607.405 38.3636 608.155 38.5189 608.761 38.8295C609.371 39.1402 609.831 39.5758 610.142 40.1364C610.456 40.6932 610.614 41.3428 610.614 42.0852C610.614 42.8314 610.455 43.4792 610.136 44.0284C609.822 44.5739 609.358 44.9962 608.744 45.2955C608.131 45.5909 607.377 45.7386 606.483 45.7386H603.375V43.9886H606.199C606.722 43.9886 607.15 43.9167 607.483 43.7727C607.816 43.625 608.063 43.411 608.222 43.1307C608.384 42.8466 608.466 42.4981 608.466 42.0852C608.466 41.6723 608.384 41.3201 608.222 41.0284C608.059 40.733 607.811 40.5095 607.477 40.358C607.144 40.2027 606.714 40.125 606.188 40.125H604.256V50H602.148ZM608.159 44.7273L611.04 50H608.688L605.858 44.7273H608.159ZM616.202 50.1705C615.327 50.1705 614.571 49.9886 613.935 49.625C613.302 49.2576 612.815 48.7386 612.474 48.0682C612.134 47.3939 611.963 46.6004 611.963 45.6875C611.963 44.7898 612.134 44.0019 612.474 43.3239C612.819 42.642 613.3 42.1117 613.918 41.733C614.535 41.3504 615.26 41.1591 616.094 41.1591C616.632 41.1591 617.139 41.2462 617.616 41.4205C618.098 41.5909 618.522 41.8561 618.889 42.2159C619.26 42.5758 619.552 43.0341 619.764 43.5909C619.976 44.1439 620.082 44.803 620.082 45.5682V46.1989H612.929V44.8125H618.111C618.107 44.4186 618.022 44.0682 617.855 43.7614C617.688 43.4508 617.455 43.2064 617.156 43.0284C616.861 42.8504 616.516 42.7614 616.122 42.7614C615.702 42.7614 615.332 42.8636 615.014 43.0682C614.696 43.2689 614.448 43.5341 614.27 43.8636C614.096 44.1894 614.007 44.5473 614.003 44.9375V46.1477C614.003 46.6553 614.096 47.0909 614.281 47.4545C614.467 47.8144 614.726 48.0909 615.06 48.2841C615.393 48.4735 615.783 48.5682 616.23 48.5682C616.529 48.5682 616.8 48.5265 617.043 48.4432C617.285 48.3561 617.495 48.2292 617.673 48.0625C617.851 47.8958 617.986 47.6894 618.077 47.4432L619.997 47.6591C619.876 48.1667 619.645 48.6098 619.304 48.9886C618.967 49.3636 618.535 49.6553 618.009 49.8636C617.482 50.0682 616.88 50.1705 616.202 50.1705ZM623.879 44.8864V50H621.822V41.2727H623.788V42.7557H623.891C624.091 42.267 624.411 41.8788 624.851 41.5909C625.294 41.303 625.841 41.1591 626.493 41.1591C627.095 41.1591 627.62 41.2879 628.067 41.5455C628.518 41.803 628.866 42.1761 629.112 42.6648C629.362 43.1534 629.485 43.7462 629.482 44.4432V50H627.425V44.7614C627.425 44.178 627.273 43.7216 626.97 43.392C626.671 43.0625 626.256 42.8977 625.726 42.8977C625.366 42.8977 625.046 42.9773 624.766 43.1364C624.489 43.2917 624.271 43.517 624.112 43.8125C623.957 44.108 623.879 44.4659 623.879 44.8864ZM635.93 41.2727V42.8636H630.913V41.2727H635.93ZM632.152 39.1818H634.209V47.375C634.209 47.6515 634.25 47.8636 634.334 48.0114C634.421 48.1553 634.535 48.2538 634.675 48.3068C634.815 48.3598 634.97 48.3864 635.141 48.3864C635.269 48.3864 635.387 48.3769 635.493 48.358C635.603 48.339 635.686 48.322 635.743 48.3068L636.089 49.9148C635.98 49.9527 635.822 49.9943 635.618 50.0398C635.417 50.0852 635.171 50.1117 634.879 50.1193C634.364 50.1345 633.9 50.0568 633.487 49.8864C633.074 49.7121 632.747 49.4432 632.504 49.0795C632.266 48.7159 632.148 48.2614 632.152 47.7159V39.1818ZM641.71 50V38.3636H646.074C646.968 38.3636 647.718 38.5189 648.324 38.8295C648.934 39.1402 649.394 39.5758 649.705 40.1364C650.019 40.6932 650.176 41.3428 650.176 42.0852C650.176 42.8314 650.017 43.4792 649.699 44.0284C649.384 44.5739 648.92 44.9962 648.307 45.2955C647.693 45.5909 646.939 45.7386 646.045 45.7386H642.938V43.9886H645.761C646.284 43.9886 646.712 43.9167 647.045 43.7727C647.379 43.625 647.625 43.411 647.784 43.1307C647.947 42.8466 648.028 42.4981 648.028 42.0852C648.028 41.6723 647.947 41.3201 647.784 41.0284C647.621 40.733 647.373 40.5095 647.04 40.358C646.706 40.2027 646.277 40.125 645.75 40.125H643.818V50H641.71ZM647.722 44.7273L650.602 50H648.25L645.42 44.7273H647.722ZM654.537 50.1761C653.984 50.1761 653.486 50.0777 653.043 49.8807C652.603 49.6799 652.255 49.3845 651.997 48.9943C651.743 48.6042 651.616 48.1231 651.616 47.5511C651.616 47.0587 651.707 46.6515 651.889 46.3295C652.071 46.0076 652.319 45.75 652.634 45.5568C652.948 45.3636 653.302 45.2178 653.696 45.1193C654.094 45.017 654.505 44.9432 654.929 44.8977C655.44 44.8447 655.855 44.7973 656.173 44.7557C656.491 44.7102 656.723 44.642 656.866 44.5511C657.014 44.4564 657.088 44.3106 657.088 44.1136V44.0795C657.088 43.6515 656.961 43.3201 656.707 43.0852C656.454 42.8504 656.088 42.733 655.611 42.733C655.107 42.733 654.707 42.8428 654.412 43.0625C654.12 43.2822 653.923 43.5417 653.821 43.8409L651.901 43.5682C652.052 43.0379 652.302 42.5947 652.651 42.2386C652.999 41.8788 653.425 41.6098 653.929 41.4318C654.433 41.25 654.99 41.1591 655.599 41.1591C656.02 41.1591 656.438 41.2083 656.855 41.3068C657.272 41.4053 657.652 41.5682 657.997 41.7955C658.342 42.0189 658.618 42.3239 658.827 42.7102C659.039 43.0966 659.145 43.5795 659.145 44.1591V50H657.168V48.8011H657.099C656.974 49.0436 656.798 49.2708 656.571 49.483C656.348 49.6913 656.065 49.8598 655.724 49.9886C655.387 50.1136 654.991 50.1761 654.537 50.1761ZM655.071 48.6648C655.484 48.6648 655.842 48.5833 656.145 48.4205C656.448 48.2538 656.681 48.0341 656.844 47.7614C657.01 47.4886 657.094 47.1913 657.094 46.8693V45.8409C657.029 45.8939 656.92 45.9432 656.764 45.9886C656.613 46.0341 656.442 46.0739 656.253 46.108C656.063 46.142 655.876 46.1723 655.69 46.1989C655.505 46.2254 655.344 46.2481 655.207 46.267C654.901 46.3087 654.626 46.3769 654.384 46.4716C654.141 46.5663 653.95 46.6989 653.81 46.8693C653.67 47.036 653.599 47.2519 653.599 47.517C653.599 47.8958 653.738 48.1818 654.014 48.375C654.291 48.5682 654.643 48.6648 655.071 48.6648ZM663.27 44.8864V50H661.213V41.2727H663.179V42.7557H663.281C663.482 42.267 663.802 41.8788 664.241 41.5909C664.685 41.303 665.232 41.1591 665.884 41.1591C666.486 41.1591 667.01 41.2879 667.457 41.5455C667.908 41.803 668.257 42.1761 668.503 42.6648C668.753 43.1534 668.876 43.7462 668.872 44.4432V50H666.815V44.7614C666.815 44.178 666.664 43.7216 666.361 43.392C666.062 43.0625 665.647 42.8977 665.116 42.8977C664.757 42.8977 664.437 42.9773 664.156 43.1364C663.88 43.2917 663.662 43.517 663.503 43.8125C663.348 44.108 663.27 44.4659 663.27 44.8864ZM674.759 53.4545C674.02 53.4545 673.385 53.3542 672.855 53.1534C672.325 52.9564 671.899 52.6913 671.577 52.358C671.255 52.0246 671.031 51.6553 670.906 51.25L672.759 50.8011C672.842 50.9716 672.963 51.1402 673.122 51.3068C673.281 51.4773 673.495 51.6174 673.764 51.7273C674.037 51.8409 674.38 51.8977 674.793 51.8977C675.376 51.8977 675.859 51.7557 676.241 51.4716C676.624 51.1913 676.815 50.7292 676.815 50.0852V48.4318H676.713C676.607 48.6439 676.452 48.8617 676.247 49.0852C676.046 49.3087 675.779 49.4962 675.446 49.6477C675.116 49.7992 674.702 49.875 674.202 49.875C673.531 49.875 672.923 49.7178 672.378 49.4034C671.836 49.0852 671.404 48.6117 671.082 47.983C670.764 47.3504 670.605 46.5587 670.605 45.608C670.605 44.6496 670.764 43.8409 671.082 43.1818C671.404 42.5189 671.838 42.017 672.384 41.6761C672.929 41.3314 673.537 41.1591 674.207 41.1591C674.719 41.1591 675.139 41.2462 675.469 41.4205C675.802 41.5909 676.067 41.7973 676.264 42.0398C676.461 42.2784 676.611 42.5038 676.713 42.7159H676.827V41.2727H678.855V50.142C678.855 50.8883 678.677 51.5057 678.321 51.9943C677.965 52.483 677.478 52.8485 676.861 53.0909C676.243 53.3333 675.543 53.4545 674.759 53.4545ZM674.776 48.2614C675.211 48.2614 675.582 48.1553 675.889 47.9432C676.196 47.7311 676.429 47.4261 676.588 47.0284C676.747 46.6307 676.827 46.1534 676.827 45.5966C676.827 45.0473 676.747 44.5663 676.588 44.1534C676.433 43.7405 676.202 43.4205 675.895 43.1932C675.592 42.9621 675.219 42.8466 674.776 42.8466C674.317 42.8466 673.935 42.9659 673.628 43.2045C673.321 43.4432 673.09 43.7708 672.935 44.1875C672.779 44.6004 672.702 45.0701 672.702 45.5966C672.702 46.1307 672.779 46.5985 672.935 47C673.094 47.3977 673.327 47.7083 673.634 47.9318C673.944 48.1515 674.325 48.2614 674.776 48.2614ZM684.827 50.1705C683.952 50.1705 683.196 49.9886 682.56 49.625C681.927 49.2576 681.44 48.7386 681.099 48.0682C680.759 47.3939 680.588 46.6004 680.588 45.6875C680.588 44.7898 680.759 44.0019 681.099 43.3239C681.444 42.642 681.925 42.1117 682.543 41.733C683.16 41.3504 683.885 41.1591 684.719 41.1591C685.257 41.1591 685.764 41.2462 686.241 41.4205C686.723 41.5909 687.147 41.8561 687.514 42.2159C687.885 42.5758 688.177 43.0341 688.389 43.5909C688.601 44.1439 688.707 44.803 688.707 45.5682V46.1989H681.554V44.8125H686.736C686.732 44.4186 686.647 44.0682 686.48 43.7614C686.313 43.4508 686.08 43.2064 685.781 43.0284C685.486 42.8504 685.141 42.7614 684.747 42.7614C684.327 42.7614 683.957 42.8636 683.639 43.0682C683.321 43.2689 683.073 43.5341 682.895 43.8636C682.721 44.1894 682.632 44.5473 682.628 44.9375V46.1477C682.628 46.6553 682.721 47.0909 682.906 47.4545C683.092 47.8144 683.351 48.0909 683.685 48.2841C684.018 48.4735 684.408 48.5682 684.855 48.5682C685.154 48.5682 685.425 48.5265 685.668 48.4432C685.91 48.3561 686.12 48.2292 686.298 48.0625C686.476 47.8958 686.611 47.6894 686.702 47.4432L688.622 47.6591C688.501 48.1667 688.27 48.6098 687.929 48.9886C687.592 49.3636 687.16 49.6553 686.634 49.8636C686.107 50.0682 685.505 50.1705 684.827 50.1705Z" fill="#2C3A61"/>
<path d="M608.804 81.2727C608.736 80.697 608.459 80.25 607.974 79.9318C607.49 79.6136 606.895 79.4545 606.19 79.4545C605.675 79.4545 605.224 79.5379 604.838 79.7045C604.455 79.8712 604.156 80.1004 603.94 80.392C603.728 80.6837 603.622 81.0152 603.622 81.3864C603.622 81.697 603.696 81.964 603.844 82.1875C603.995 82.4072 604.188 82.5909 604.423 82.7386C604.658 82.8826 604.904 83.0019 605.162 83.0966C605.42 83.1875 605.656 83.2614 605.872 83.3182L607.054 83.6364C607.357 83.7159 607.694 83.8258 608.065 83.9659C608.44 84.1061 608.798 84.2973 609.139 84.5398C609.484 84.7784 609.768 85.0852 609.991 85.4602C610.215 85.8352 610.327 86.2955 610.327 86.8409C610.327 87.4697 610.162 88.0379 609.832 88.5455C609.507 89.053 609.029 89.4564 608.401 89.7557C607.776 90.0549 607.016 90.2045 606.122 90.2045C605.289 90.2045 604.567 90.0701 603.957 89.8011C603.351 89.5322 602.874 89.1572 602.526 88.6761C602.181 88.1951 601.986 87.6364 601.94 87H603.395C603.433 87.4394 603.58 87.803 603.838 88.0909C604.099 88.375 604.429 88.5871 604.827 88.7273C605.228 88.8636 605.66 88.9318 606.122 88.9318C606.66 88.9318 607.143 88.8447 607.571 88.6705C607.999 88.4924 608.338 88.2462 608.588 87.9318C608.838 87.6136 608.963 87.2424 608.963 86.8182C608.963 86.4318 608.855 86.1174 608.639 85.875C608.423 85.6326 608.139 85.4356 607.787 85.2841C607.435 85.1326 607.054 85 606.645 84.8864L605.213 84.4773C604.304 84.2159 603.584 83.8428 603.054 83.358C602.524 82.8731 602.259 82.2386 602.259 81.4545C602.259 80.803 602.435 80.2348 602.787 79.75C603.143 79.2614 603.62 78.8826 604.219 78.6136C604.821 78.3409 605.493 78.2045 606.236 78.2045C606.986 78.2045 607.652 78.339 608.236 78.608C608.819 78.8731 609.281 79.2367 609.622 79.6989C609.967 80.161 610.149 80.6856 610.168 81.2727H608.804ZM616.121 90.1818C615.28 90.1818 614.554 89.9962 613.945 89.625C613.339 89.25 612.871 88.7273 612.541 88.0568C612.215 87.3826 612.053 86.5985 612.053 85.7045C612.053 84.8106 612.215 84.0227 612.541 83.3409C612.871 82.6553 613.329 82.1212 613.916 81.7386C614.507 81.3523 615.196 81.1591 615.984 81.1591C616.439 81.1591 616.888 81.2348 617.331 81.3864C617.774 81.5379 618.178 81.7841 618.541 82.125C618.905 82.4621 619.195 82.9091 619.411 83.4659C619.626 84.0227 619.734 84.7083 619.734 85.5227V86.0909H613.007V84.9318H618.371C618.371 84.4394 618.272 84 618.075 83.6136C617.882 83.2273 617.606 82.9223 617.246 82.6989C616.89 82.4754 616.469 82.3636 615.984 82.3636C615.45 82.3636 614.988 82.4962 614.598 82.7614C614.212 83.0227 613.914 83.3636 613.706 83.7841C613.498 84.2045 613.393 84.6553 613.393 85.1364V85.9091C613.393 86.5682 613.507 87.1269 613.734 87.5852C613.965 88.0398 614.286 88.3864 614.695 88.625C615.104 88.8598 615.579 88.9773 616.121 88.9773C616.473 88.9773 616.791 88.928 617.075 88.8295C617.363 88.7273 617.611 88.5758 617.82 88.375C618.028 88.1705 618.189 87.9167 618.303 87.6136L619.598 87.9773C619.462 88.4167 619.232 88.803 618.911 89.1364C618.589 89.4659 618.191 89.7235 617.717 89.9091C617.244 90.0909 616.712 90.1818 616.121 90.1818ZM623.115 78.3636V90H621.774V78.3636H623.115ZM629.23 90.1818C628.389 90.1818 627.664 89.9962 627.054 89.625C626.448 89.25 625.98 88.7273 625.651 88.0568C625.325 87.3826 625.162 86.5985 625.162 85.7045C625.162 84.8106 625.325 84.0227 625.651 83.3409C625.98 82.6553 626.438 82.1212 627.026 81.7386C627.616 81.3523 628.306 81.1591 629.094 81.1591C629.548 81.1591 629.997 81.2348 630.44 81.3864C630.884 81.5379 631.287 81.7841 631.651 82.125C632.014 82.4621 632.304 82.9091 632.52 83.4659C632.736 84.0227 632.844 84.7083 632.844 85.5227V86.0909H626.116V84.9318H631.48C631.48 84.4394 631.382 84 631.185 83.6136C630.991 83.2273 630.715 82.9223 630.355 82.6989C629.999 82.4754 629.579 82.3636 629.094 82.3636C628.56 82.3636 628.098 82.4962 627.707 82.7614C627.321 83.0227 627.024 83.3636 626.815 83.7841C626.607 84.2045 626.503 84.6553 626.503 85.1364V85.9091C626.503 86.5682 626.616 87.1269 626.844 87.5852C627.075 88.0398 627.395 88.3864 627.804 88.625C628.213 88.8598 628.688 88.9773 629.23 88.9773C629.582 88.9773 629.901 88.928 630.185 88.8295C630.473 88.7273 630.721 88.5758 630.929 88.375C631.137 88.1705 631.298 87.9167 631.412 87.6136L632.707 87.9773C632.571 88.4167 632.342 88.803 632.02 89.1364C631.698 89.4659 631.3 89.7235 630.827 89.9091C630.353 90.0909 629.821 90.1818 629.23 90.1818ZM638.429 90.1818C637.611 90.1818 636.906 89.9886 636.315 89.6023C635.724 89.2159 635.27 88.6837 634.952 88.0057C634.634 87.3277 634.474 86.553 634.474 85.6818C634.474 84.7955 634.637 84.0133 634.963 83.3352C635.293 82.6534 635.751 82.1212 636.338 81.7386C636.929 81.3523 637.618 81.1591 638.406 81.1591C639.02 81.1591 639.573 81.2727 640.065 81.5C640.558 81.7273 640.961 82.0455 641.276 82.4545C641.59 82.8636 641.785 83.3409 641.861 83.8864H640.52C640.418 83.4886 640.19 83.1364 639.838 82.8295C639.49 82.5189 639.02 82.3636 638.429 82.3636C637.906 82.3636 637.448 82.5 637.054 82.7727C636.664 83.0417 636.359 83.4223 636.139 83.9148C635.923 84.4034 635.815 84.9773 635.815 85.6364C635.815 86.3106 635.921 86.8977 636.134 87.3977C636.349 87.8977 636.652 88.286 637.043 88.5625C637.437 88.839 637.899 88.9773 638.429 88.9773C638.777 88.9773 639.094 88.9167 639.378 88.7955C639.662 88.6742 639.902 88.5 640.099 88.2727C640.296 88.0455 640.437 87.7727 640.52 87.4545H641.861C641.785 87.9697 641.598 88.4337 641.298 88.8466C641.003 89.2557 640.611 89.5814 640.122 89.8239C639.637 90.0625 639.073 90.1818 638.429 90.1818ZM647.616 81.2727V82.4091H643.094V81.2727H647.616ZM644.412 79.1818H645.753V87.5C645.753 87.8788 645.808 88.1629 645.918 88.3523C646.031 88.5379 646.175 88.6629 646.349 88.7273C646.527 88.7879 646.715 88.8182 646.912 88.8182C647.06 88.8182 647.181 88.8106 647.276 88.7955C647.37 88.7765 647.446 88.7614 647.503 88.75L647.776 89.9545C647.685 89.9886 647.558 90.0227 647.395 90.0568C647.232 90.0947 647.026 90.1136 646.776 90.1136C646.397 90.1136 646.026 90.0322 645.662 89.8693C645.302 89.7064 645.003 89.4583 644.764 89.125C644.529 88.7917 644.412 88.3712 644.412 87.8636V79.1818ZM654.134 90V81.2727H655.429V82.5909H655.52C655.679 82.1591 655.967 81.8087 656.384 81.5398C656.8 81.2708 657.27 81.1364 657.793 81.1364C657.891 81.1364 658.014 81.1383 658.162 81.142C658.31 81.1458 658.421 81.1515 658.497 81.1591V82.5227C658.452 82.5114 658.348 82.4943 658.185 82.4716C658.026 82.4451 657.857 82.4318 657.679 82.4318C657.255 82.4318 656.876 82.5208 656.543 82.6989C656.213 82.8731 655.952 83.1155 655.759 83.4261C655.569 83.733 655.474 84.0833 655.474 84.4773V90H654.134ZM663.48 90.1818C662.639 90.1818 661.914 89.9962 661.304 89.625C660.698 89.25 660.23 88.7273 659.901 88.0568C659.575 87.3826 659.412 86.5985 659.412 85.7045C659.412 84.8106 659.575 84.0227 659.901 83.3409C660.23 82.6553 660.688 82.1212 661.276 81.7386C661.866 81.3523 662.556 81.1591 663.344 81.1591C663.798 81.1591 664.247 81.2348 664.69 81.3864C665.134 81.5379 665.537 81.7841 665.901 82.125C666.264 82.4621 666.554 82.9091 666.77 83.4659C666.986 84.0227 667.094 84.7083 667.094 85.5227V86.0909H660.366V84.9318H665.73C665.73 84.4394 665.632 84 665.435 83.6136C665.241 83.2273 664.965 82.9223 664.605 82.6989C664.249 82.4754 663.829 82.3636 663.344 82.3636C662.81 82.3636 662.348 82.4962 661.957 82.7614C661.571 83.0227 661.274 83.3636 661.065 83.7841C660.857 84.2045 660.753 84.6553 660.753 85.1364V85.9091C660.753 86.5682 660.866 87.1269 661.094 87.5852C661.325 88.0398 661.645 88.3864 662.054 88.625C662.463 88.8598 662.938 88.9773 663.48 88.9773C663.832 88.9773 664.151 88.928 664.435 88.8295C664.723 88.7273 664.971 88.5758 665.179 88.375C665.387 88.1705 665.548 87.9167 665.662 87.6136L666.957 87.9773C666.821 88.4167 666.592 88.803 666.27 89.1364C665.948 89.4659 665.55 89.7235 665.077 89.9091C664.603 90.0909 664.071 90.1818 663.48 90.1818ZM670.474 84.75V90H669.134V81.2727H670.429V82.6364H670.543C670.747 82.1932 671.058 81.8371 671.474 81.5682C671.891 81.2955 672.429 81.1591 673.088 81.1591C673.679 81.1591 674.196 81.2803 674.639 81.5227C675.082 81.7614 675.427 82.125 675.673 82.6136C675.92 83.0985 676.043 83.7121 676.043 84.4545V90H674.702V84.5455C674.702 83.8598 674.524 83.3258 674.168 82.9432C673.812 82.5568 673.323 82.3636 672.702 82.3636C672.274 82.3636 671.891 82.4564 671.554 82.642C671.221 82.8277 670.957 83.0985 670.764 83.4545C670.571 83.8106 670.474 84.2424 670.474 84.75ZM682.288 81.2727V82.4091H677.766V81.2727H682.288ZM679.084 79.1818H680.425V87.5C680.425 87.8788 680.48 88.1629 680.589 88.3523C680.703 88.5379 680.847 88.6629 681.021 88.7273C681.199 88.7879 681.387 88.8182 681.584 88.8182C681.732 88.8182 681.853 88.8106 681.947 88.7955C682.042 88.7765 682.118 88.7614 682.175 88.75L682.447 89.9545C682.357 89.9886 682.23 90.0227 682.067 90.0568C681.904 90.0947 681.697 90.1136 681.447 90.1136C681.069 90.1136 680.697 90.0322 680.334 89.8693C679.974 89.7064 679.675 89.4583 679.436 89.125C679.201 88.7917 679.084 88.3712 679.084 87.8636V79.1818ZM688.805 90V81.2727H690.101V82.5909H690.192C690.351 82.1591 690.639 81.8087 691.055 81.5398C691.472 81.2708 691.942 81.1364 692.464 81.1364C692.563 81.1364 692.686 81.1383 692.834 81.142C692.982 81.1458 693.093 81.1515 693.169 81.1591V82.5227C693.124 82.5114 693.019 82.4943 692.857 82.4716C692.697 82.4451 692.529 82.4318 692.351 82.4318C691.927 82.4318 691.548 82.5208 691.214 82.6989C690.885 82.8731 690.624 83.1155 690.43 83.4261C690.241 83.733 690.146 84.0833 690.146 84.4773V90H688.805ZM697.327 90.2045C696.774 90.2045 696.272 90.1004 695.821 89.892C695.37 89.6799 695.012 89.375 694.747 88.9773C694.482 88.5758 694.349 88.0909 694.349 87.5227C694.349 87.0227 694.448 86.6174 694.645 86.3068C694.842 85.9924 695.105 85.7462 695.435 85.5682C695.764 85.3902 696.128 85.2576 696.526 85.1705C696.927 85.0795 697.33 85.0076 697.736 84.9545C698.266 84.8864 698.696 84.8352 699.026 84.8011C699.359 84.7633 699.601 84.7008 699.753 84.6136C699.908 84.5265 699.986 84.375 699.986 84.1591V84.1136C699.986 83.553 699.832 83.1174 699.526 82.8068C699.223 82.4962 698.762 82.3409 698.145 82.3409C697.505 82.3409 697.003 82.4811 696.639 82.7614C696.276 83.0417 696.02 83.3409 695.872 83.6591L694.599 83.2045C694.827 82.6742 695.13 82.2614 695.509 81.9659C695.891 81.6667 696.308 81.4583 696.759 81.3409C697.213 81.2197 697.66 81.1591 698.099 81.1591C698.38 81.1591 698.702 81.1932 699.065 81.2614C699.433 81.3258 699.787 81.4602 700.128 81.6648C700.473 81.8693 700.759 82.178 700.986 82.5909C701.213 83.0038 701.327 83.5568 701.327 84.25V90H699.986V88.8182H699.918C699.827 89.0076 699.675 89.2102 699.463 89.4261C699.251 89.642 698.969 89.8258 698.616 89.9773C698.264 90.1288 697.834 90.2045 697.327 90.2045ZM697.531 89C698.062 89 698.509 88.8958 698.872 88.6875C699.24 88.4792 699.516 88.2102 699.702 87.8807C699.891 87.5511 699.986 87.2045 699.986 86.8409V85.6136C699.929 85.6818 699.804 85.7443 699.611 85.8011C699.421 85.8542 699.202 85.9015 698.952 85.9432C698.705 85.9811 698.465 86.0152 698.23 86.0455C697.999 86.072 697.812 86.0947 697.668 86.1136C697.319 86.1591 696.993 86.233 696.69 86.3352C696.391 86.4337 696.149 86.5833 695.963 86.7841C695.781 86.9811 695.69 87.25 695.69 87.5909C695.69 88.0568 695.863 88.4091 696.207 88.6477C696.556 88.8826 696.997 89 697.531 89ZM705.115 84.75V90H703.774V81.2727H705.07V82.6364H705.183C705.388 82.1932 705.698 81.8371 706.115 81.5682C706.532 81.2955 707.07 81.1591 707.729 81.1591C708.32 81.1591 708.837 81.2803 709.28 81.5227C709.723 81.7614 710.068 82.125 710.314 82.6136C710.56 83.0985 710.683 83.7121 710.683 84.4545V90H709.342V84.5455C709.342 83.8598 709.164 83.3258 708.808 82.9432C708.452 82.5568 707.964 82.3636 707.342 82.3636C706.914 82.3636 706.532 82.4564 706.195 82.642C705.861 82.8277 705.598 83.0985 705.405 83.4545C705.212 83.8106 705.115 84.2424 705.115 84.75ZM716.656 93.4545C716.009 93.4545 715.452 93.3712 714.986 93.2045C714.52 93.0417 714.132 92.8258 713.821 92.5568C713.514 92.2917 713.27 92.0076 713.088 91.7045L714.156 90.9545C714.277 91.1136 714.431 91.2955 714.616 91.5C714.802 91.7083 715.056 91.8883 715.378 92.0398C715.704 92.1951 716.13 92.2727 716.656 92.2727C717.361 92.2727 717.942 92.1023 718.401 91.7614C718.859 91.4205 719.088 90.8864 719.088 90.1591V88.3864H718.974C718.876 88.5455 718.736 88.7424 718.554 88.9773C718.376 89.2083 718.118 89.4148 717.781 89.5966C717.448 89.7746 716.997 89.8636 716.429 89.8636C715.724 89.8636 715.092 89.697 714.531 89.3636C713.974 89.0303 713.533 88.5455 713.207 87.9091C712.885 87.2727 712.724 86.5 712.724 85.5909C712.724 84.697 712.882 83.9186 713.196 83.2557C713.51 82.589 713.948 82.0739 714.509 81.7102C715.069 81.3428 715.717 81.1591 716.452 81.1591C717.02 81.1591 717.471 81.2538 717.804 81.4432C718.141 81.6288 718.399 81.8409 718.577 82.0795C718.759 82.3144 718.899 82.5076 718.997 82.6591H719.134V81.2727H720.429V90.25C720.429 91 720.259 91.6098 719.918 92.0795C719.58 92.553 719.126 92.8996 718.554 93.1193C717.986 93.3428 717.353 93.4545 716.656 93.4545ZM716.611 88.6591C717.149 88.6591 717.603 88.536 717.974 88.2898C718.346 88.0436 718.628 87.6894 718.821 87.2273C719.014 86.7652 719.111 86.2121 719.111 85.5682C719.111 84.9394 719.016 84.3845 718.827 83.9034C718.637 83.4223 718.357 83.0455 717.986 82.7727C717.615 82.5 717.156 82.3636 716.611 82.3636C716.043 82.3636 715.569 82.5076 715.19 82.7955C714.815 83.0833 714.533 83.4697 714.344 83.9545C714.158 84.4394 714.065 84.9773 714.065 85.5682C714.065 86.1742 714.16 86.7102 714.349 87.1761C714.543 87.6383 714.827 88.0019 715.202 88.267C715.58 88.5284 716.05 88.6591 716.611 88.6591ZM726.543 90.1818C725.702 90.1818 724.976 89.9962 724.366 89.625C723.76 89.25 723.293 88.7273 722.963 88.0568C722.637 87.3826 722.474 86.5985 722.474 85.7045C722.474 84.8106 722.637 84.0227 722.963 83.3409C723.293 82.6553 723.751 82.1212 724.338 81.7386C724.929 81.3523 725.618 81.1591 726.406 81.1591C726.861 81.1591 727.31 81.2348 727.753 81.3864C728.196 81.5379 728.599 81.7841 728.963 82.125C729.327 82.4621 729.616 82.9091 729.832 83.4659C730.048 84.0227 730.156 84.7083 730.156 85.5227V86.0909H723.429V84.9318H728.793C728.793 84.4394 728.694 84 728.497 83.6136C728.304 83.2273 728.027 82.9223 727.668 82.6989C727.312 82.4754 726.891 82.3636 726.406 82.3636C725.872 82.3636 725.41 82.4962 725.02 82.7614C724.634 83.0227 724.336 83.3636 724.128 83.7841C723.92 84.2045 723.815 84.6553 723.815 85.1364V85.9091C723.815 86.5682 723.929 87.1269 724.156 87.5852C724.387 88.0398 724.707 88.3864 725.116 88.625C725.526 88.8598 726.001 88.9773 726.543 88.9773C726.895 88.9773 727.213 88.928 727.497 88.8295C727.785 88.7273 728.033 88.5758 728.241 88.375C728.45 88.1705 728.611 87.9167 728.724 87.6136L730.02 87.9773C729.884 88.4167 729.654 88.803 729.332 89.1364C729.01 89.4659 728.613 89.7235 728.139 89.9091C727.666 90.0909 727.134 90.1818 726.543 90.1818Z" fill="#889099"/>
<path d="M758.5 81L751 88.5L743.5 81" stroke="#4A60A1" stroke-width="1.5" stroke-linecap="round" stroke-linejoin="round"/>
<line x1="271.5" y1="32" x2="271.5" y2="96" stroke="#CFD3D6"/>
<line x1="545.5" y1="32" x2="545.5" y2="96" stroke="#CFD3D6"/>
<line x1="819.5" y1="32" x2="819.5" y2="96" stroke="#CFD3D6"/>
<rect x="908" y="44" width="102" height="48" rx="4" fill="#4A60A1"/>
<path d="M939.961 65.4205C939.9 64.8826 939.65 64.4659 939.211 64.1705C938.772 63.8712 938.219 63.7216 937.552 63.7216C937.075 63.7216 936.662 63.7973 936.313 63.9489C935.965 64.0966 935.694 64.3011 935.501 64.5625C935.311 64.8201 935.217 65.1136 935.217 65.4432C935.217 65.7197 935.281 65.9583 935.41 66.1591C935.542 66.3598 935.715 66.5284 935.927 66.6648C936.143 66.7973 936.374 66.9091 936.62 67C936.866 67.0871 937.103 67.1591 937.33 67.2159L938.467 67.5114C938.838 67.6023 939.219 67.7254 939.609 67.8807C939.999 68.036 940.361 68.2405 940.694 68.4943C941.027 68.7481 941.296 69.0625 941.501 69.4375C941.709 69.8125 941.813 70.2614 941.813 70.7841C941.813 71.4432 941.643 72.0284 941.302 72.5398C940.965 73.0511 940.474 73.4545 939.83 73.75C939.19 74.0455 938.415 74.1932 937.506 74.1932C936.635 74.1932 935.881 74.0549 935.245 73.7784C934.609 73.5019 934.111 73.1098 933.751 72.6023C933.391 72.0909 933.192 71.4848 933.154 70.7841H934.915C934.95 71.2045 935.086 71.5549 935.325 71.8352C935.567 72.1117 935.876 72.3182 936.251 72.4545C936.629 72.5871 937.044 72.6534 937.495 72.6534C937.991 72.6534 938.433 72.5758 938.819 72.4205C939.209 72.2614 939.516 72.0417 939.739 71.7614C939.963 71.4773 940.075 71.1458 940.075 70.767C940.075 70.4223 939.976 70.1402 939.779 69.9205C939.586 69.7008 939.323 69.5189 938.989 69.375C938.66 69.2311 938.287 69.1042 937.87 68.9943L936.495 68.6193C935.563 68.3655 934.825 67.9924 934.279 67.5C933.737 67.0076 933.467 66.3561 933.467 65.5455C933.467 64.875 933.648 64.2898 934.012 63.7898C934.376 63.2898 934.868 62.9015 935.489 62.625C936.111 62.3447 936.811 62.2045 937.592 62.2045C938.379 62.2045 939.075 62.3428 939.677 62.6193C940.283 62.8958 940.76 63.2765 941.109 63.7614C941.457 64.2424 941.639 64.7955 941.654 65.4205H939.961ZM947.536 74.1761C946.676 74.1761 945.936 73.9924 945.315 73.625C944.697 73.2538 944.22 72.733 943.883 72.0625C943.549 71.3883 943.383 70.5985 943.383 69.6932C943.383 68.7992 943.549 68.0114 943.883 67.3295C944.22 66.6477 944.69 66.1155 945.292 65.733C945.898 65.3504 946.606 65.1591 947.417 65.1591C947.909 65.1591 948.387 65.2405 948.849 65.4034C949.311 65.5663 949.726 65.822 950.093 66.1705C950.46 66.5189 950.75 66.9716 950.962 67.5284C951.174 68.0814 951.281 68.7538 951.281 69.5455V70.1477H944.343V68.875H949.616C949.616 68.428 949.525 68.0322 949.343 67.6875C949.161 67.339 948.906 67.0644 948.576 66.8636C948.25 66.6629 947.868 66.5625 947.428 66.5625C946.951 66.5625 946.534 66.6799 946.178 66.9148C945.826 67.1458 945.553 67.4489 945.36 67.8239C945.171 68.1951 945.076 68.5985 945.076 69.0341V70.0284C945.076 70.6117 945.178 71.108 945.383 71.517C945.591 71.9261 945.881 72.2386 946.252 72.4545C946.623 72.6667 947.057 72.7727 947.553 72.7727C947.875 72.7727 948.169 72.7273 948.434 72.6364C948.699 72.5417 948.928 72.4015 949.121 72.2159C949.315 72.0303 949.462 71.8011 949.565 71.5284L951.173 71.8182C951.044 72.2917 950.813 72.7064 950.479 73.0625C950.15 73.4148 949.735 73.6894 949.235 73.8864C948.739 74.0795 948.173 74.1761 947.536 74.1761ZM955.705 74.1932C955.152 74.1932 954.652 74.0909 954.205 73.8864C953.758 73.678 953.404 73.3769 953.143 72.983C952.885 72.589 952.756 72.1061 952.756 71.5341C952.756 71.0417 952.851 70.6364 953.04 70.3182C953.23 70 953.486 69.7481 953.808 69.5625C954.129 69.3769 954.489 69.2367 954.887 69.142C955.285 69.0473 955.69 68.9754 956.103 68.9261C956.626 68.8655 957.05 68.8163 957.376 68.7784C957.701 68.7367 957.938 68.6705 958.086 68.5795C958.234 68.4886 958.308 68.3409 958.308 68.1364V68.0966C958.308 67.6004 958.167 67.2159 957.887 66.9432C957.611 66.6705 957.198 66.5341 956.648 66.5341C956.076 66.5341 955.626 66.661 955.296 66.9148C954.97 67.1648 954.745 67.4432 954.62 67.75L953.023 67.3864C953.213 66.8561 953.489 66.428 953.853 66.1023C954.22 65.7727 954.643 65.5341 955.12 65.3864C955.597 65.2348 956.099 65.1591 956.626 65.1591C956.974 65.1591 957.344 65.2008 957.734 65.2841C958.128 65.3636 958.495 65.5114 958.836 65.7273C959.181 65.9432 959.463 66.2519 959.683 66.6534C959.902 67.0511 960.012 67.5682 960.012 68.2045V74H958.353V72.8068H958.285C958.175 73.0265 958.01 73.2424 957.79 73.4545C957.571 73.6667 957.289 73.8428 956.944 73.983C956.599 74.1231 956.186 74.1932 955.705 74.1932ZM956.075 72.8295C956.544 72.8295 956.946 72.7367 957.279 72.5511C957.616 72.3655 957.872 72.1231 958.046 71.8239C958.224 71.5208 958.313 71.197 958.313 70.8523V69.7273C958.253 69.7879 958.135 69.8447 957.961 69.8977C957.79 69.947 957.595 69.9905 957.376 70.0284C957.156 70.0625 956.942 70.0947 956.734 70.125C956.525 70.1515 956.351 70.1742 956.211 70.1932C955.881 70.2348 955.58 70.3049 955.308 70.4034C955.039 70.5019 954.823 70.6439 954.66 70.8295C954.501 71.0114 954.421 71.2538 954.421 71.5568C954.421 71.9773 954.576 72.2955 954.887 72.5114C955.198 72.7235 955.594 72.8295 956.075 72.8295ZM962.275 74V65.2727H963.917V66.6591H964.008C964.167 66.1894 964.447 65.8201 964.849 65.5511C965.254 65.2784 965.712 65.142 966.224 65.142C966.33 65.142 966.455 65.1458 966.599 65.1534C966.746 65.161 966.862 65.1705 966.945 65.1818V66.8068C966.877 66.7879 966.756 66.767 966.582 66.7443C966.407 66.7178 966.233 66.7045 966.059 66.7045C965.657 66.7045 965.299 66.7898 964.985 66.9602C964.674 67.1269 964.428 67.3598 964.246 67.6591C964.065 67.9545 963.974 68.2917 963.974 68.6705V74H962.275ZM971.779 74.1761C970.934 74.1761 970.207 73.9848 969.597 73.6023C968.991 73.2159 968.525 72.6837 968.2 72.0057C967.874 71.3277 967.711 70.5511 967.711 69.6761C967.711 68.7898 967.878 68.0076 968.211 67.3295C968.544 66.6477 969.014 66.1155 969.62 65.733C970.226 65.3504 970.94 65.1591 971.762 65.1591C972.425 65.1591 973.016 65.2822 973.535 65.5284C974.054 65.7708 974.472 66.1117 974.79 66.5511C975.112 66.9905 975.304 67.5038 975.364 68.0909H973.711C973.62 67.6818 973.412 67.3295 973.086 67.0341C972.764 66.7386 972.332 66.5909 971.79 66.5909C971.317 66.5909 970.902 66.7159 970.546 66.9659C970.194 67.2121 969.919 67.5644 969.722 68.0227C969.525 68.4773 969.427 69.0152 969.427 69.6364C969.427 70.2727 969.523 70.822 969.717 71.2841C969.91 71.7462 970.183 72.1042 970.535 72.358C970.891 72.6117 971.309 72.7386 971.79 72.7386C972.112 72.7386 972.404 72.6799 972.665 72.5625C972.931 72.4413 973.152 72.2689 973.33 72.0455C973.512 71.822 973.639 71.553 973.711 71.2386H975.364C975.304 71.803 975.12 72.3068 974.813 72.75C974.506 73.1932 974.095 73.5417 973.58 73.7955C973.069 74.0492 972.469 74.1761 971.779 74.1761ZM978.88 68.8182V74H977.181V62.3636H978.857V66.6932H978.965C979.17 66.2235 979.482 65.8504 979.903 65.5739C980.323 65.2973 980.872 65.1591 981.55 65.1591C982.149 65.1591 982.672 65.2822 983.119 65.5284C983.569 65.7746 983.918 66.142 984.164 66.6307C984.414 67.1155 984.539 67.7216 984.539 68.4489V74H982.84V68.6534C982.84 68.0133 982.675 67.517 982.346 67.1648C982.016 66.8087 981.558 66.6307 980.971 66.6307C980.569 66.6307 980.21 66.7159 979.891 66.8864C979.577 67.0568 979.329 67.3068 979.147 67.6364C978.969 67.9621 978.88 68.3561 978.88 68.8182Z" fill="white"/>
</svg>
